<svg xmlns="http://www.w3.org/2000/svg"><style>:root svg:not(:target){display:none}</style><svg viewBox="0 0 17 33" id="arrow-left"><path d="m2.08 11.5 10.88-10.81a2.38 2.38 0 0 1 4.04 1.67 2.34 2.34 0 0 1-.7 1.67l-10.9 10.8a2.36 2.36 0 0 0 0 3.34l10.9 10.8a2.35 2.35 0 0 1-1.66 4.03c-.63 0-1.24-.24-1.68-.68l-10.88-10.82a7.05 7.05 0 0 1 0-10Z"></path></svg><svg viewBox="0 0 15 15" fill="none" id="clock"><path fill-rule="evenodd" clip-rule="evenodd" d="M6.9.03a7.51 7.51 0 1 0 3.87 14.22 7.5 7.5 0 0 0-3.87-14.22Zm1.57 1.42a6.11 6.11 0 0 1 1.18 11.8 6.13 6.13 0 1 1-1.18-11.8Zm-1.3 1.36a.83.83 0 0 0-.23.22l-.1.13v2.23c-.01 1.61 0 2.26.02 2.35.03.11.23.32 1.13 1.23 1.16 1.16 1.27 1.25 1.55 1.25.5 0 .82-.5.61-.96a8.3 8.3 0 0 0-1.02-1.1l-.96-.96v-2.02l-.02-2.01-.08-.13a.62.62 0 0 0-.54-.3.63.63 0 0 0-.35.07Z" fill="#668BD4"></path></svg><svg viewBox="0 0 20 19" fill="none" id="plus"><path fill-rule="evenodd" clip-rule="evenodd" d="M9.36.03a1.3 1.3 0 0 0-.6.44c-.22.3-.22.13-.22 4.17v3.71h-3.52c-2.36 0-3.6.01-3.74.04-.57.1-.93.53-.93 1.11 0 .58.36 1.01.93 1.12.14.02 1.38.04 3.74.04h3.52l.01 3.74.01 3.75.09.18c.2.43.57.67 1.05.67.47 0 .82-.22 1.03-.68l.1-.21.01-3.73.01-3.72h3.67c2.46 0 3.75-.02 3.9-.04a1.13 1.13 0 0 0 0-2.23 75.4 75.4 0 0 0-3.92-.02l-3.69.03v-3.74c0-3.66 0-3.75-.07-3.94-.1-.24-.33-.5-.57-.61a1.4 1.4 0 0 0-.81-.08Z" fill="#fff"></path></svg><svg viewBox="0 0 30 30" fill="none" id="search"><path d="m30 27-3 3-9-9v-3h3l9 9Z" fill="#fff"></path><path d="M10.5 21c-5.85 0-10.5-4.65-10.5-10.5s4.65-10.5 10.5-10.5 10.5 4.65 10.5 10.5-4.65 10.5-10.5 10.5Zm0-18c-4.2 0-7.5 3.3-7.5 7.5s3.3 7.5 7.5 7.5 7.5-3.3 7.5-7.5-3.3-7.5-7.5-7.5Z" fill="#fff"></path><path d="m15.94 17.1 1.06-1.06 3.7 3.71-1.05 1.06-3.71-3.7Z" fill="#fff"></path></svg><svg viewBox="0 0 59 54" id="shortcut-logo"><path fill-rule="evenodd" clip-rule="evenodd" d="M20.96.03c-.3.05-1.11.29-1.55.45a9.87 9.87 0 0 0-3.53 2.15c-.31.34-.59.78-.65 1.05a.4.4 0 0 1-.15.22l-.12.09.06-.15a.73.73 0 0 0-.32-.94c-.17-.08-.22-.09-.36-.05-.23.06-.35.16-.44.35-.12.26-.1.6.07.79.05.05.03.11-.1.4-.07.18-.14.35-.14.38 0 .05-.8.66-.83.63a7.08 7.08 0 0 1 .89-2.33c.17-.25.13-.47-.09-.47-.05 0-.22.08-.38.17a6.57 6.57 0 0 0-3.09 4.6l-.11.56-.44.47c-.24.26-.64.72-.89 1.03-.28.35-.45.52-.46.48-.03-.1.07-.83.19-1.37a6 6 0 0 1 1.02-2.44c.26-.33.31-.42.28-.52-.03-.1-.21-.18-.3-.14a42.3 42.3 0 0 0-1.97 2.07 7.28 7.28 0 0 0-1.47 2.97c-.18.8-.2 1.9-.05 2.68l.04.21-.45.88c-.27.53-.45.84-.46.8-.01-.04.02-.12.06-.17.4-.42.29-1.14-.2-1.4a.78.78 0 0 0-.63.02c-.3.16-.49.64-.38 1 .06.26.3.51.53.57.2.06.23.1.23.45a1 1 0 0 0 .04.31c.02.06-.03.23-.14.5-.1.24-.28.74-.41 1.12-.14.38-.25.67-.27.63l-.1-.56a15.3 15.3 0 0 0-.27-1.09c-.4-1.4-.46-1.83-.37-2.56.06-.5.03-.58-.19-.56-.11 0-.15.05-.33.39a10.63 10.63 0 0 0-1.1 3.67 9.9 9.9 0 0 0 .1 2.37c.2.93.55 1.73 1.06 2.36.18.22.28.38.27.42-.02.07-.1.97-.17 1.79a1 1 0 0 1-.05.3 2.91 2.91 0 0 1-.14-.3l-.12-.29.11-.16c.23-.35.14-.92-.18-1.11-.21-.14-.35-.15-.56-.07-.64.24-.56 1.34.1 1.47.08.02.14.05.14.07l.13.35c.1.22.2.38.34.52l.2.2-.02.34-.03.35-.1-.22a7.8 7.8 0 0 0-.83-1.48 7.81 7.81 0 0 1-1.21-2.57c-.17-.53-.22-.64-.31-.69-.18-.1-.28.03-.33.45a17 17 0 0 0 .07 2.7c.4 3.35 1.46 5.7 2.9 6.44l.32.16.08.38c.04.21.14.66.23 1l.16.62-.21-.1a1.1 1.1 0 0 1-.2-.13s.02-.09.06-.17a.78.78 0 0 0-.35-1c-.64-.3-1.26.5-.85 1.1.14.21.3.3.53.33.12.02.28.07.41.16.12.07.34.19.5.25l.27.12.28.81c.2.6.25.8.2.76a78.16 78.16 0 0 1-1.14-.84c-.71-.5-1.4-1.2-2.22-2.2-.2-.25-.26-.3-.36-.3a.2.2 0 0 0-.21.21 12.4 12.4 0 0 1 1.15 2.65c.6 1.68.94 2.45 1.44 3.18.3.44.78.97 1.16 1.25a5.24 5.24 0 0 0 2.74.98l.37.55c.2.3.35.53.32.52-.13-.05-1.04-.25-1.59-.35a4.03 4.03 0 0 1-2.08-.81c-.15-.12-.3-.22-.32-.22-.08 0-.23.15-.23.23 0 .09.03.13 1.65 2.06 1.47 1.76 2.36 2.5 3.5 2.96a5.3 5.3 0 0 0 2.12.36l.82.02.29.24a3 3 0 0 1 .28.25l-1.12-.01c-1.04-.03-1.13-.03-1.2.04-.12.1-.1.26.03.37.43.37.67.6 1.27 1.23 1.24 1.31 1.86 1.82 2.62 2.13a4.8 4.8 0 0 0 3.63-.05l.3-.12.55.25c.63.29.78.33.9.22.08-.07.08-.05.1 1.94 0 1.11.02 2.03.04 2.05a146 146 0 0 0 4.43-.25l4.4-.27.24.11a3.62 3.62 0 0 0 3.1.1l.35-.15 4.38.4c4.07.38 4.38.4 4.43.34.04-.05.05-.61.05-2.45 0-2.34 0-2.39.08-2.3.1.1.68.32 1.18.44 1.23.31 2.29.22 3.37-.31.77-.38 1.24-.76 2.5-1.98a33.45 33.45 0 0 1 1.5-1.4c.06-.08.04-.22-.05-.3-.07-.06-.17-.07-1.21-.04l-1.14.03.22-.2c.36-.33.3-.32 1.2-.33a5.13 5.13 0 0 0 3.16-.9c.89-.6 1.73-1.49 3.75-3.96.38-.48.41-.56.24-.7-.1-.08-.15-.06-.43.16-.62.5-1 .64-2.39.88a15.79 15.79 0 0 0-1.31.28 37.28 37.28 0 0 0 .68-1.01c.03-.04.15-.08.39-.1a5.26 5.26 0 0 0 2.39-.93 5.5 5.5 0 0 0 1.17-1.27c.51-.76.82-1.46 1.46-3.24a11.46 11.46 0 0 1 1.12-2.56c0-.13-.09-.23-.2-.23-.1 0-.19.08-.54.52a11.8 11.8 0 0 1-2.26 2.15 14.86 14.86 0 0 0-1 .72s.05-.2.14-.41l.27-.8.13-.4.2-.07c.1-.05.34-.17.5-.27.18-.1.37-.18.44-.18.27 0 .5-.16.63-.44.26-.54-.2-1.17-.76-1.05a.88.88 0 0 0-.5.43.88.88 0 0 0 .01.63l.07.16-.22.13c-.19.1-.21.1-.19.03.06-.2.28-1.1.37-1.49l.09-.44.31-.16c1.45-.74 2.51-3.08 2.91-6.44a17 17 0 0 0 .07-2.7c-.05-.42-.15-.55-.33-.45-.1.05-.14.15-.3.7a7.75 7.75 0 0 1-1.22 2.56c-.4.59-.72 1.17-.9 1.61-.06.14-.06.13-.08-.22l-.01-.37.2-.2c.15-.15.26-.3.35-.53l.13-.35c0-.02.06-.05.13-.07.35-.07.57-.39.54-.8-.02-.35-.17-.57-.44-.67-.16-.07-.22-.07-.35-.03a.8.8 0 0 0-.48.46 1 1 0 0 0 .1.75l.1.16-.11.29c-.06.16-.13.3-.14.3-.03.03-.06-.24-.09-.74-.01-.22-.05-.63-.09-.9l-.06-.52.29-.36c.5-.62.87-1.42 1.06-2.35.12-.54.16-1.7.1-2.37a10.63 10.63 0 0 0-1.1-3.67c-.18-.34-.22-.38-.33-.4-.22-.01-.25.06-.19.57.09.73.03 1.12-.36 2.51a17.72 17.72 0 0 0-.38 1.7c-.02.08-.08-.07-.25-.54-.12-.36-.3-.87-.41-1.13-.15-.38-.19-.5-.16-.58.02-.06.04-.2.04-.32 0-.34.03-.38.23-.44a.86.86 0 0 0 .53-.56c.1-.37-.07-.85-.38-1a.78.78 0 0 0-.63-.02c-.3.15-.5.58-.44.91.03.17.16.42.24.5.07.05.1.2.04.2-.02 0-.22-.39-.46-.86-.42-.83-.43-.85-.4-1.05.03-.11.06-.45.09-.76a6.6 6.6 0 0 0-1.16-4.31c-.43-.63-.74-1-1.66-1.92-.66-.67-.8-.79-.87-.77-.11.04-.2.14-.2.24 0 .03.07.15.16.25a6.5 6.5 0 0 1 1.3 3.37l.06.57v.15l-.14-.17a31.6 31.6 0 0 0-1.3-1.52l-.35-.35-.12-.57a6.56 6.56 0 0 0-3.15-4.67c-.24-.14-.38-.16-.47-.08-.08.08-.06.25.04.4.13.19.45.82.57 1.13.12.32.36 1.2.34 1.22a3.28 3.28 0 0 1-.86-.7 3.11 3.11 0 0 0-.15-.37l-.11-.27.08-.11c.05-.07.1-.21.1-.35.08-.74-.82-1.06-1.15-.41a.76.76 0 0 0-.03.65l.06.15-.12-.08a.52.52 0 0 1-.17-.27c-.27-.9-1.47-1.93-3.2-2.75a9.64 9.64 0 0 0-2.7-.88c-.3-.02-.31-.02-.38.09-.1.15-.06.23.24.48.27.21 1.39 1.3 1.34 1.3l-.61-.18a8.5 8.5 0 0 0-3.7-.52c-.3.04-.42.12-.42.27 0 .21 1.24 1.13 2.03 1.5 1.14.54 2.18.61 3.96.26l.73-.14.66.28.86.38a15 15 0 0 1 1.78 1.13l-.66-.22a9.78 9.78 0 0 0-3.59-.6c-.28.03-.39.06-.45.12-.16.16-.1.24.53.67a17.9 17.9 0 0 0 2.1 1.35c1.02.49 2.16.67 3.57.57l.83-.05c.09 0 .24.1.71.53a26.96 26.96 0 0 1 4.2 4.95c.02.05-.2-.14-.51-.4-1.36-1.19-2.24-1.79-2.99-2.05-.14-.05-.5-.12-.8-.17a5.37 5.37 0 0 1-2.12-.72c-.38-.2-.48-.24-.57-.21-.08.03-.1.07-.12.17 0 .11.06.24.4.73a10.24 10.24 0 0 0 1.96 2.33c.36.27.8.45 1.63.69a15.16 15.16 0 0 1 3.97 1.68l.47.27.2.4c.34.68 1.17 2.7 1.17 2.83l-.51-.46a9.55 9.55 0 0 0-2.91-1.99 8 8 0 0 1-1.7-1.02.37.37 0 0 0-.12.05c-.13.07-.1.27.06.5.23.31.47.71.86 1.46a9.86 9.86 0 0 0 1.54 2.36l.29.32-.25.02c-.13.02-.3.06-.38.1-.1.05-.13.09-.13.2 0 .11.03.16.11.22.3.2.74.69 1.3 1.45 1.04 1.43 1.73 1.97 2.88 2.26l.18.04.03.29c.04.44.11 1.74.1 1.75a11.33 11.33 0 0 0-2.2-2.21 6.32 6.32 0 0 1-1.56-1.5c-.3-.52-.28-.5-.41-.5-.26 0-.27.1-.07 1.27.29 1.65.72 2.9 1.38 3.95.13.2.53.74.88 1.2a10.93 10.93 0 0 1 1.53 2.31l.1.25-.1.53c-.1.52-.44 1.96-.5 2.15a5.2 5.2 0 0 1-.1-1.46c0-.71-.05-1.11-.2-1.47-.09-.22-.1-.29-.06-.37.07-.14.06-.54 0-.7a.93.93 0 0 0-.22-.27c-.13-.11-.2-.14-.34-.14-.5 0-.8.6-.57 1.13.11.26.28.39.55.41.2.02.2.03.26.22l.1.3.05 1.38c.04 1.2.05 1.3.14 1.58l.1.29-.15.44-.15.44-.02-.78a8.04 8.04 0 0 0-.78-3.6c-.32-.73-.56-1.42-.66-1.86a.76.76 0 0 0-.13-.31c-.1-.1-.28-.04-.34.1a28.8 28.8 0 0 0 0 4.15c-.03.02-.54-1.5-.54-1.59 0-.09-.14-.2-.24-.2-.17 0-.2.1-.23.83a5.36 5.36 0 0 1-.4 2 4.1 4.1 0 0 0-.34 1.83c-.03 1.04.07 2.3.4 4.89l.06.59-.44.58c-.48.63-1.26 1.55-1.29 1.52-.02-.03.16-1.2.23-1.47.06-.22.1-.26.2-.3a.66.66 0 0 0 .43-.35c.1-.17.12-.24.12-.54 0-.3-.01-.36-.13-.54-.16-.26-.35-.37-.62-.34a.63.63 0 0 0-.54.38c-.18.38-.16.78.06 1.1l.13.2-.06.23-.07.22-.1-.13a.68.68 0 0 0-.57-.3c-.62 0-.91.73-.48 1.19l.13.13-.08.24c-.04.12-.2.47-.34.77a4.9 4.9 0 0 0-.54 1.52c-.03.26-.03.26-.31.5-.15.12-.29.22-.3.21l.12-.57c.07-.31.23-1.2.36-1.97.26-1.54.42-2.2.61-2.63.19-.4.16-.56-.09-.56-.1 0-.17.09-.55.6-.25.33-.85 1.09-1.34 1.69-.5.6-1.06 1.3-1.27 1.57a13.23 13.23 0 0 0-2.5 4.9c-.02.05-.11.13-.21.18a.44.44 0 0 0-.22.21c-.04.1-.07.12-.14.1-.22-.07-.27-.07-.34.01-.08.08-.08.02-.08-3.66v-3.73l-.76-.03-.81-.03a8.1 8.1 0 0 1-.78-1.32c0-.05-.08-.1-.28-.15a13.9 13.9 0 0 0-3.96-.68c-1.06 0-1.75.15-2.43.51-.57.3-.96.66-1.32 1.2l-.15.23-.16-.25a3.77 3.77 0 0 0-2.41-1.58c-1.33-.33-3.4-.23-4.96.25-.43.14-.48.16-.5.26-.02.07-.36.61-.76 1.21l-.74 1.1-.02 5.05c-.03 3.8-.02 5.07.01 5.09.03.02 1.81-.03 3.96-.1l3.92-.13.34.14c.54.23.84.3 1.35.3.49 0 .77-.06 1.2-.28l.25-.12 3.94.24c2.42.15 3.97.23 3.99.2.02-.02.06-2.28.09-5.03l.05-5-.24-.4a5.12 5.12 0 0 1-.24-.43c0-.01.27-.02.6-.02h.6l-.04 5.99c-.01 3.3-.03 6-.04 6 0 .01-1.96-.16-4.33-.38l-4.31-.4-.32.14a3 3 0 0 1-1.54.3c-.54-.02-.86-.1-1.4-.35l-.33-.15-1.79.11c-5.71.36-6.82.43-6.84.42l-.03-5.9-.02-5.87h.65c.37 0 .7 0 .73-.02.09-.03.09-.21 0-.24a7.9 7.9 0 0 0-1.57.02c-.04.04-.06.99-.06 4.01 0 3.78 0 3.96-.07 3.9-.04-.04-.3-.16-.56-.28-.84-.38-1.14-.54-1.18-.64l-.25-.77c-.6-1.86-1.32-3.03-3.52-5.7-.49-.6-1.1-1.36-1.34-1.7-.38-.5-.46-.59-.56-.59-.24 0-.27.16-.08.56.2.43.35 1.1.6 2.63a54.36 54.36 0 0 0 .48 2.55l-.3-.22c-.26-.23-.27-.23-.3-.5a4.97 4.97 0 0 0-.54-1.52c-.15-.3-.3-.65-.34-.77l-.08-.24.13-.13c.43-.46.14-1.18-.48-1.18a.65.65 0 0 0-.57.29l-.1.13-.07-.22-.06-.22.13-.2c.22-.33.24-.73.06-1.1a.63.63 0 0 0-.54-.4c-.26-.02-.46.1-.62.35-.12.18-.13.24-.13.54 0 .3.02.37.12.54.12.2.2.27.43.35.1.04.14.09.18.23.06.21.27 1.5.26 1.55-.02.05-.85-.92-1.35-1.58l-.4-.52.08-.6a37 37 0 0 0 .4-4.9 4.12 4.12 0 0 0-.36-1.83 5.36 5.36 0 0 1-.4-1.99c-.02-.74-.05-.83-.23-.83-.1 0-.23.12-.23.2 0 .08-.51 1.61-.53 1.6a28.81 28.81 0 0 0-.01-4.15c-.06-.15-.24-.2-.34-.11a.76.76 0 0 0-.13.3c-.1.45-.34 1.14-.66 1.87a8.2 8.2 0 0 0-.78 3.62l-.02.79-.16-.44-.15-.43.1-.32c.1-.3.11-.38.15-1.59.02-.7.04-1.33.06-1.38l.09-.3c.06-.2.06-.2.26-.22.27-.02.44-.15.55-.41.23-.53-.07-1.13-.57-1.13-.15 0-.21.03-.34.14a.93.93 0 0 0-.21.27 1.2 1.2 0 0 0-.01.7c.04.08.03.15-.06.37-.15.36-.2.76-.2 1.47 0 .64-.04 1.55-.07 1.52a18.8 18.8 0 0 1-.48-1.92l-.17-.83.26-.5c.32-.64.63-1.1 1.39-2.06a9.28 9.28 0 0 0 2.01-3.96c.15-.6.4-2 .4-2.23 0-.16-.08-.24-.24-.22-.1.01-.15.07-.29.32-.34.61-.59.86-1.85 1.84a9.6 9.6 0 0 0-2 2.05c-.03-.02.07-1.66.1-1.88.03-.16.04-.17.33-.26.97-.3 1.63-.85 2.6-2.1.64-.83.91-1.14 1.27-1.41.25-.2.3-.24.3-.36 0-.17-.17-.26-.52-.3l-.25-.02.3-.32c.56-.63.9-1.15 1.53-2.36.4-.75.63-1.15.87-1.47a.75.75 0 0 0 .14-.31c0-.11-.1-.23-.2-.23-.04 0-.24.14-.45.3-.29.22-.63.41-1.26.72a9.61 9.61 0 0 0-3.07 2.14l-.39.38.18-.5c.35-.94.92-2.27 1.15-2.66.1-.18.55-.44 1.73-1.02 1.04-.51 1.63-.74 2.74-1.06a4.88 4.88 0 0 0 1.68-.7 10.3 10.3 0 0 0 1.96-2.33c.34-.5.4-.62.4-.73-.01-.1-.04-.14-.12-.17-.09-.03-.19 0-.57.21-.77.43-1.23.59-2.12.72-.3.05-.65.12-.78.17-.77.26-1.67.88-3.04 2.08a3.7 3.7 0 0 1-.49.4l.3-.44a25.79 25.79 0 0 1 3.89-4.52c.57-.53.64-.58.76-.56.42.07 1.52.1 2.07.07a5.97 5.97 0 0 0 3.25-1.15c1.35-.9 1.74-1.19 1.75-1.28.02-.16-.12-.25-.48-.28-.9-.09-2.18.12-3.63.6-.33.1-.62.2-.66.2-.1.04.52-.38 1.1-.73.3-.17.56-.34.6-.37l.44-.2.77-.32.4-.17.38.09c2 .42 3.1.37 4.3-.2.79-.37 2.03-1.29 2.03-1.5 0-.15-.12-.23-.42-.27a8.47 8.47 0 0 0-3.7.52l-.6.19a16.3 16.3 0 0 1 1.33-1.31c.3-.25.34-.33.24-.48-.05-.09-.1-.1-.26-.1-.11 0-.25.02-.31.03Zm-.9 1.1c-.67.65-1.14.96-2.11 1.42-.79.38-.96.45-.9.4.02-.03.37-.21.77-.41.83-.42 1.16-.67 1.16-.88 0-.12-.1-.23-.2-.23-.02 0-.17.1-.31.2a5.3 5.3 0 0 1-.85.5c-.88.42-1.24.67-1.51 1.06-.12.18-.27.3-.27.21 0-.07.43-.55.74-.81a10.88 10.88 0 0 1 3.98-2c.02 0-.2.24-.5.54Zm19-.35c1.43.49 2.75 1.23 3.56 1.99.23.21.54.58.54.64 0 .08-.17-.07-.3-.26-.22-.32-.6-.59-1.42-1a5.14 5.14 0 0 1-1.21-.72c-.2 0-.28.26-.14.42.07.08.07.08-.07.08-.2 0-.56-.28-1.16-.88-.52-.53-.52-.52.2-.27Zm-15.31.95c-.25.22-.95.66-1.32.83a4.64 4.64 0 0 1-2.78.34c0-.02.23-.06.52-.09a7.7 7.7 0 0 0 2.4-.53c.24-.12.3-.22.25-.37-.06-.16-.18-.17-.47-.03-.34.16-.8.28-1.47.39-.83.12-.86.1-.17-.13a8.73 8.73 0 0 1 2.72-.54h.47l-.15.13Zm12.62-.07c.6.09 1.21.24 1.92.48l.62.2-.3-.01a6.76 6.76 0 0 1-1.91-.43c-.28-.11-.36-.14-.43-.1a.21.21 0 0 0-.1.3c.16.27 1.27.57 2.66.71.29.03.52.07.52.09a4.58 4.58 0 0 1-2.78-.34 8.04 8.04 0 0 1-1.38-.88l-.08-.09h.42c.23 0 .6.03.84.07Zm-6.97 1.75-.05.76c-.05.93-.14 1.43-.27 1.55-.04.04-.22.1-.4.13a6.9 6.9 0 0 0-5.19 5.09c-.13.53-.14.6-.08.6.03 0 .28-.14.56-.3a12.6 12.6 0 0 1 3.78-1.54c.5-.1.62-.11 1.54-.11.87 0 1.05 0 1.46.1 1.28.25 2.72.84 4.07 1.65l.43.24c.06 0 .05-.2-.04-.65a6.14 6.14 0 0 0-4.73-5.01c-.44-.11-.61-.21-.7-.4a5.93 5.93 0 0 1-.2-1.56 9.7 9.7 0 0 0-.06-.8c-.05-.14-.1-.03-.12.25Zm-14.85-.07c.09.08.09.32 0 .4-.05.03-.09.04-.16 0-.09-.04-.1-.08-.1-.2 0-.13.08-.27.16-.27.02 0 .07.03.1.07Zm30.1 0c.04.03.07.13.07.2 0 .12-.02.16-.1.2-.15.06-.24-.02-.24-.2 0-.13.09-.27.17-.27.02 0 .07.03.1.07Zm-31.72.4c-.21.5-.43 1.3-.53 1.95-.02.13-.07.2-.24.35-.11.1-.22.17-.23.16-.01-.01.08-.24.2-.52.36-.85.42-1.14.23-1.26-.1-.06-.12-.06-.21 0-.07.04-.11.12-.13.23-.02.14-.15.48-.45 1.2-.09.2-.25.8-.25.91 0 .01-.14.15-.32.3-.36.33-.35.37-.11-.43.26-.87.78-1.8 1.32-2.38.24-.25.77-.73.8-.71l-.08.2Zm33.52.18a5.74 5.74 0 0 1 1.51 2.26c.13.34.36 1.12.34 1.15l-.32-.27c-.3-.28-.3-.3-.36-.58a6.6 6.6 0 0 0-.44-1.26 3.9 3.9 0 0 1-.2-.57c-.02-.1-.06-.19-.13-.23-.1-.06-.11-.06-.2 0-.2.12-.14.41.23 1.26.11.27.2.5.2.53 0 .03-.1-.04-.22-.15l-.22-.19-.1-.52a11.9 11.9 0 0 0-.53-1.76c-.04-.1.09 0 .44.33Zm-31.94.36a.08.08 0 0 1-.07.04c-.02 0-.03-.02-.01-.04a.08.08 0 0 1 .07-.04c.02 0 .03.02.01.04Zm30.06 0c.02.02 0 .04-.01.04a.08.08 0 0 1-.07-.04c-.02-.02-.01-.04.01-.04.03 0 .06.02.07.04Zm-26.2.3c-1.56 1.17-2.54 1.6-3.9 1.72-.76.06-.86.03-.27-.08a7.42 7.42 0 0 0 1.94-.68c.74-.36.82-.44.63-.63-.12-.12-.25-.09-.78.19a6.31 6.31 0 0 1-2.6.76c.04-.04 1.1-.45 1.71-.67 1.13-.4 2.41-.67 3.18-.7h.2l-.12.1Zm23.28.02a17.02 17.02 0 0 1 3.96 1.26c.03.04-.43-.03-.93-.14a5.68 5.68 0 0 1-1.58-.57c-.54-.29-.72-.35-.83-.29-.12.07-.15.2-.07.32.04.06.09.1.12.1l.59.28a7.4 7.4 0 0 0 1.9.66c.58.11.48.14-.29.08a5.39 5.39 0 0 1-2.1-.57c-.47-.23-1.3-.77-1.78-1.15l-.13-.1.38.03c.21.01.55.05.76.09Zm-33.37 3.04c-.2.66-.38 1.65-.45 2.65-.02.37-.04.42-.17.6l-.15.2.02-.69c.01-.64.02-.7.13-.97.12-.3.11-.42-.06-.47-.14-.05-.27.08-.37.34a4.4 4.4 0 0 0-.18 1.65v.82l-.3.49-.31.49-.04-.18c-.05-.3 0-1.47.1-1.92a6.86 6.86 0 0 1 1.5-2.97 258.03 258.03 0 0 0 .4-.44l-.12.4Zm42.8.14c.7.84 1.2 1.88 1.42 2.87.1.46.15 1.53.1 1.89l-.04.22-.3-.49-.31-.5v-.86c0-.92-.06-1.35-.2-1.69-.1-.21-.22-.3-.35-.26-.17.05-.18.17-.06.47.11.26.12.33.13.97l.02.7-.15-.2c-.13-.18-.14-.24-.17-.59a12.47 12.47 0 0 0-.57-3.06c0-.04.23.22.49.53Zm-37.5 1.75c-.1.17-.62.86-.85 1.13a3.64 3.64 0 0 1-2.23 1.42c-.67.19-1.65.52-1.86.62-.19.1-.17.04.03-.1l.72-.57c.63-.52.76-.6 1.17-.75.26-.09.33-.13.36-.22.06-.18-.01-.26-.27-.26-.34 0-.8.27-1.56.88a16.1 16.1 0 0 1-1.64 1.2l-.17.1.14-.13c1.91-1.74 2.95-2.5 3.73-2.71.13-.04.49-.1.8-.15a5.5 5.5 0 0 0 1.48-.42c.19-.1.19-.1.15-.04Zm32.64.28c.16.05.54.13.85.18a3.7 3.7 0 0 1 1.86.69c.59.38 1.62 1.22 2.61 2.13l.18.16-.17-.09c-.3-.16-.98-.66-1.64-1.2-.76-.61-1.22-.87-1.56-.88-.26 0-.33.08-.27.26.03.09.1.13.36.22.41.15.54.23 1.17.75.3.24.62.5.72.56.2.15.22.2.03.1-.2-.1-1.19-.42-1.86-.6-.35-.1-.8-.26-.99-.35-.3-.15-.42-.24-.8-.62-.38-.37-.95-1.07-1.25-1.52l-.07-.12.27.12c.14.07.4.16.56.21Zm-17.99.33c-2.15.2-4 .96-5.04 2.06-.48.51-.8 1.06-.61 1.06.03 0 .15-.16.28-.35.88-1.32 2.65-2.21 5.03-2.53.71-.1 2.07-.1 2.81 0 2.48.32 4.41 1.36 5.18 2.8.15.27.2.32.27.25.06-.06-.02-.23-.27-.61-.91-1.39-2.87-2.37-5.24-2.64-.51-.06-1.96-.08-2.4-.04Zm.13.63c-2.16.2-3.98.9-5.08 1.98-.53.53-.9 1.14-.7 1.14.03 0 .14-.13.24-.29.84-1.28 2.57-2.2 4.83-2.55.68-.11 2.6-.11 3.28 0a9.6 9.6 0 0 1 2.62.76 5.26 5.26 0 0 1 2.44 2.2c.03.1.14.12.17.02.02-.03-.04-.18-.13-.33-.82-1.47-2.63-2.47-5.13-2.86-.43-.06-2.11-.11-2.54-.07Zm-.21.85c-2.06.21-3.8.92-4.87 1.97-.53.53-.9 1.14-.7 1.14.04 0 .14-.12.23-.27.08-.14.32-.43.53-.65.95-.97 2.41-1.63 4.3-1.92.7-.11 2.6-.11 3.3 0 1.42.22 2.6.65 3.55 1.29.51.34 1.1.97 1.35 1.41.19.33.27.41.32.28.04-.08-.23-.54-.52-.9-.92-1.16-2.6-1.97-4.7-2.29-.52-.08-2.25-.11-2.8-.06Zm-.1.85c-.6.06-1.58.27-2.15.45a6.01 6.01 0 0 0-3.19 2.18c-.18.27-.24.47-.13.47.03 0 .15-.15.27-.33.53-.8 1.46-1.5 2.57-1.93.59-.23.67-.26.49-.13l-.15.1-.01.37c-.01.28 0 .4.05.47.05.08.06.22.06.58 0 .42.01.48.09.55.08.07.08.13.08 1.42 0 1.3 0 1.34-.08 1.36-.08.02-.09.06-.09.33v.3l.14-.02.41-.1.28-.06.01-.3c.01-.3.01-.3-.1-.3h-.1v-2.62l.1-.18c.1-.15.1-.21.11-.65 0-.34.02-.51.06-.58.04-.07.06-.23.07-.43 0-.37-.04-.41-.33-.42-.21 0 .46-.17 1.1-.28.68-.1 2.68-.1 3.36 0 1.55.25 2.8.74 3.74 1.45.5.38 1 .95 1.22 1.4.05.12.12.2.15.2.27 0-.17-.74-.8-1.36-.99-.96-2.4-1.58-4.33-1.89a19.9 19.9 0 0 0-2.9-.05Zm.93.3c-.3.08-.33.12-.32.48 0 .26.01.34.08.43.07.09.08.17.08.58 0 .44.01.48.1.6l.11.15v2.65l-.09.01c-.09.01-.1.04-.1.3v.3h.98v-.3c.02-.3.02-.3-.09-.3h-.1v-2.66l.1-.12c.1-.12.1-.16.1-.61 0-.42.02-.5.1-.6.06-.08.08-.16.08-.45v-.34l-.2-.07c-.29-.1-.6-.12-.83-.05Zm2.9.28c-.09.03-.1.06-.1.36 0 .21.03.37.07.45.04.09.06.26.06.6 0 .4.01.5.08.64.08.16.09.25.09 1.5 0 1.23 0 1.32-.08 1.3-.06 0-.07.03-.08.26 0 .15 0 .29.03.31.04.04.61.24.69.24.02 0 .03-.13.03-.29 0-.25-.01-.3-.08-.34-.09-.04-.09-.08-.09-1.36 0-1.25 0-1.32.09-1.42.07-.09.08-.17.08-.58 0-.35.02-.5.07-.56.04-.05.06-.19.06-.42 0-.32-.01-.35-.12-.45a1.2 1.2 0 0 0-.6-.28.68.68 0 0 0-.2.04Zm-26.95.95c.1.13.12.3.03.47-.1.2-.27.23-.43.07-.2-.21-.08-.65.2-.65.08 0 .15.03.2.1Zm49.55 0c.13.16.12.4-.01.54-.16.16-.33.13-.43-.07-.14-.26 0-.58.23-.58.08 0 .15.03.21.1Zm-38.78.14a1.1 1.1 0 0 0-.03.34l.01.28-.6.23c-2.47.95-3.44 1.33-3.45 1.35-.04.04.03.16.08.14l1.98-.77 1.92-.75 1.86-.02 1.86-.02.02-.3v-.31h.14c.12 0 .46.23 1.94 1.3.98.71 1.82 1.3 1.85 1.29.03 0 .07-.03.07-.05.01-.03-.81-.65-1.83-1.39l-1.85-1.34-1.97-.02c-1.54 0-1.98 0-2 .04Zm18.52.07c-.01.01-.03.16-.03.33 0 .25.02.31.09.38.08.07.08.12.08 2.22v2.15l.22.08c.13.05.24.08.26.07.03-.02.03-.91.02-2.16l-.02-2.13.1-.02c.17-.05.19-.33.02-.53s-.66-.47-.74-.4Zm-10.37.3c-.1.03-.28.14-.4.25-.2.17-.21.2-.2.36.01.14.03.17.11.2l.1.02v2.05l-.01 2.05.1-.03.26-.09.15-.06v-2.03c0-1.99 0-2.03.09-2.1.07-.07.08-.13.07-.38 0-.16-.03-.3-.05-.3a.74.74 0 0 0-.22.05Zm3.7.05a1 1 0 0 0-.5.41l-.13.19v1.46c0 .8.02 1.46.03 1.45l.63-.05c.32-.01.7-.03.83-.05l.24-.02v-2.85l-.24-.25c-.3-.3-.55-.39-.86-.3Zm10.37 1.09-1.85 1.13c-.07.06-.04.13.04.13.03 0 .87-.5 1.86-1.1 1.32-.8 1.83-1.08 1.93-1.08h.13v.29c0 .22.01.29.06.31.04.01.83.03 1.77.03h1.7l1.91.8c1.46.61 1.93.8 1.96.76.04-.04.04-.07.01-.1l-1.9-.82-1.87-.78-.02-.32v-.32l-1.97-.01-1.97-.01-1.79 1.09Zm-18.14-.64c0 .36 0 .38.1.45l.11.07-.01-.39c-.01-.34-.02-.39-.1-.45l-.1-.06v.38Zm10.83-.3c-.06.04-.16.14-.23.24l-.12.17v1.44c0 1.33 0 1.44.07 1.45.05.02.35.07.67.11.33.05.63.1.67.12.07.02.07-.07.07-1.4 0-1.33 0-1.41-.09-1.57a1.6 1.6 0 0 0-.5-.57c-.16-.08-.42-.07-.54.01Zm-2.58.01c.12.05.41.3.41.35 0 .02-.08.03-.19.03a.7.7 0 0 0-.28.05c-.22.1-.22.14-.24 1.47l-.01 1.24-.26.03-.33.03c-.08 0-.08-.07-.08-1.36v-1.36l.13-.18c.07-.1.19-.2.26-.25a.8.8 0 0 1 .6-.05Zm-25.2.34c.02.18.16.78.31 1.32.32 1.16.44 1.81.47 2.57.03.48.02.6-.07.93l-.1.38c-.04 0-.2-.57-.23-.84-.03-.16-.08-.7-.11-1.2a6.19 6.19 0 0 0-.25-1.69c-.1-.24-.14-.3-.29-.3-.2 0-.23.15-.12.49.12.36.16.66.21 1.53a5.9 5.9 0 0 0 .5 2.47l.14.3-.05.33c-.08.51-.08.5-.28.23a5.5 5.5 0 0 1-.84-2.13c-.1-.57-.1-1.75 0-2.42a12.01 12.01 0 0 1 .64-2.3l.06.33Zm53.56.03a9.2 9.2 0 0 1 .56 3.18 5.7 5.7 0 0 1-.57 2.73c-.23.44-.5.84-.54.77a2.03 2.03 0 0 1-.09-.4c-.05-.33-.04-.34.06-.55.32-.62.46-1.29.54-2.55.05-.88.1-1.19.21-1.55.11-.34.07-.48-.12-.48-.16 0-.2.05-.3.35-.13.36-.17.64-.24 1.64a7.33 7.33 0 0 1-.24 1.76c-.1.33-.11.32-.22-.14a2.69 2.69 0 0 1-.05-.88c.03-.77.15-1.42.47-2.6a17.4 17.4 0 0 0 .38-1.64l.15.36Zm-25.26-.24c.13.09.3.27.4.45.04.09.04.09-.11.05-.2-.06-.35-.02-.4.11-.02.06-.04.64-.04 1.3v1.2l-.26-.02a1.7 1.7 0 0 1-.3-.05c-.02-.01-.03-.63-.03-1.37 0-1.29 0-1.35.09-1.48.17-.28.4-.34.65-.19Zm-10.85.48c0 .32.01.36.11.45l.1.1v-.38c0-.32 0-.4-.07-.45l-.1-.07c-.02 0-.04.16-.04.35Zm4.46-.14c-.18.09-.4.35-.5.6a6.1 6.1 0 0 0-.07 1.6c0 .8.02 1.45.03 1.45.02 0 .35-.1.72-.24l.7-.24v-2.83l-.15-.16c-.13-.15-.34-.27-.48-.27a.84.84 0 0 0-.25.09Zm10.5.22c0 .23.03.33.07.37.06.04.07.32.07 2.01v1.96l.14.1.17.08c.01 0 .02-.88.02-1.95 0-1.9 0-1.94.09-1.97.18-.04.06-.41-.25-.73-.26-.26-.3-.24-.3.13Zm-9.93-.03c.07.06.13.13.13.16 0 .02-.09.07-.2.1-.15.06-.22.1-.28.22-.08.14-.09.23-.1 1.39l-.02 1.24-.22.07a7.5 7.5 0 0 0-.27.1c-.04.01-.05-.27-.05-1.36v-1.38l.12-.21c.18-.31.35-.44.58-.44.13 0 .22.03.31.11Zm13.6-.06c-.05.03-.07.1-.07.31 0 .29 0 .3.13.23.07-.04.08-.1.08-.32 0-.28 0-.3-.13-.22Zm-5.89.09c-.22.24-.22.26-.22 1.78v1.42l.53.18.6.2c.04.02.05-.2.05-1.42v-1.45l-.15-.3a1.6 1.6 0 0 0-.28-.4c-.16-.14-.4-.15-.53-.01Zm-12.14.3c0 .32 0 .4.07.46l.1.07c.02 0 .04-.16.04-.35 0-.32-.01-.36-.1-.45l-.11-.1v.38Zm-12.24.39a9.8 9.8 0 0 1-1.01 1.68c-.73.96-1.74 1.86-3.36 2.98l-.44.3.03-.15c.07-.43.1-.47.33-.59.65-.33 1.1-.74 1.82-1.7.54-.72.83-1 1.27-1.23.3-.17.4-.29.33-.43-.08-.15-.2-.15-.48 0-.56.27-.9.6-1.55 1.47-.23.31-.54.68-.68.82-.24.24-.75.62-.79.59 0-.01.04-.24.12-.51l.13-.5.49-.5a9.76 9.76 0 0 1 3.39-2.58 8.56 8.56 0 0 0 .73-.35c.02 0-.13.31-.33.7Zm5.1 0c-1.11.37-2.04.7-2.07.71-.08.05-.08.12 0 .13.04.01.98-.3 2.1-.68l2.02-.7h3.75l1.82 1.19a31 31 0 0 0 1.9 1.18c.05 0 .09-.02.09-.04 0-.03-.85-.6-1.88-1.27l-1.87-1.22h-3.86l-2 .7Zm36.54-.58.78.38c.64.3 1.03.55 1.59 1 .44.35 1.72 1.6 1.9 1.85.09.13.38 1.1.33 1.1l-.28-.18a5 5 0 0 1-1.18-1.24c-.66-.88-1-1.2-1.55-1.48-.28-.14-.4-.14-.48 0-.07.14.02.28.23.38.27.14.67.43.84.62l.6.75c.65.87 1.11 1.3 1.75 1.62.15.07.23.15.24.2.08.33.1.48.1.5-.03.02-.62-.39-1.24-.84-1.4-1.05-2.33-2-2.96-3.01a26.4 26.4 0 0 1-.94-1.77c.01 0 .14.05.27.12Zm-16.78.06c.11.11.31.44.31.5l-.15-.02c-.27-.08-.27-.06-.27 1.34v1.24l-.12-.02a1.77 1.77 0 0 1-.23-.07l-.12-.05v-1.34c0-.75.02-1.38.04-1.44.06-.16.2-.28.32-.28.05 0 .15.06.22.14Zm4.93 0c-.08.07-.1.11-.1.37 0 .3.02.32.15.23.06-.05.07-.11.06-.36l-.01-.3-.1.07Zm-.62 1.1c-.91.6-1.69 1.11-1.73 1.15-.08.07-.08.08-.01.1.07.04.05.06 2.09-1.27l1.36-.88h4.06l2 .78a12 12 0 0 0 2.07.73c.03-.03.03-.06 0-.08-.02-.03-.94-.4-2.04-.82l-2-.78h-4.15l-1.65 1.07Zm-21.92.54v1.53h.46v-3.06h-.46v1.53Zm2.91.02v1.51h.42v-3.02h-.42v1.51Zm2.63-1.11c0 .33 0 .35.1.42l.1.07v-.36c0-.33 0-.35-.1-.42l-.1-.07v.36Zm16.45-.2c-.08.05-.1.1-.1.35 0 .3.02.33.15.23.06-.04.07-.1.06-.35l-.01-.3-.1.06Zm1.75.1c-.02.08-.03.77-.02 1.54v1.4h.46l-.01-1.53-.01-1.52-.2-.01c-.19-.01-.2-.01-.22.12Zm3.05-.1c-.02.01-.03.7-.03 1.53v1.5h.46v-1.52l-.02-1.52-.19-.01c-.1 0-.2 0-.22.02Zm-25.43.22a.84.84 0 0 0-.46.44c-.1.2-.1.25-.1 1.23 0 .85-.01 1.03-.06 1.09a.2.2 0 0 0-.05.15c.01.1.02.1.96.1l.95.02-.02-1.21c0-1.16-.01-1.22-.1-1.4a.97.97 0 0 0-.28-.31.72.72 0 0 0-.46-.14c-.16 0-.33.01-.38.03Zm20.04.13c-.1.07-.1.1-.09.4l.02.32.1-.08c.08-.07.09-.1.08-.4l-.02-.32-.1.08Zm-19.43 0c.13.05.35.24.35.3 0 .02-.04.03-.1.03-.17 0-.52.2-.64.39l-.12.17-.02.82-.01.81-.24-.01-.24-.01-.01-.89v-1.06c.04-.2.23-.45.43-.53a.97.97 0 0 1 .6-.02Zm4.16.26c0 .23.01.3.07.35.13.1.14.07.14-.24 0-.24-.02-.31-.08-.35-.12-.1-.13-.07-.13.24Zm19.04-.15a.9.9 0 0 0-.4.4c-.08.14-.08.26-.08 1.23 0 .92-.01 1.07-.07 1.07-.04 0-.06.04-.06.15v.14h1.9v-1.18c0-1.06 0-1.2-.08-1.36a1.15 1.15 0 0 0-.5-.48 1.27 1.27 0 0 0-.7.03Zm.69.12c.15.07.35.22.35.27 0 .02-.08.05-.18.06a.9.9 0 0 0-.57.35c-.12.15-.12.16-.14.97l-.02.83h-.24l-.25.02v-1.02c0-.98 0-1.03.1-1.18.18-.31.6-.44.95-.3Zm-27.28.12a.98.98 0 0 0-.44.63c-.05.22-.08 2.2-.04 2.2 0 0 .3-.08.63-.2.58-.19.61-.2.64-.32.03-.16.04-1.82 0-1.99a.7.7 0 0 0-.16-.28c-.16-.17-.37-.19-.63-.04Zm22.24.02c-.05.06-.07.16-.07.38v.3l.11-.07c.1-.06.1-.1.1-.38 0-.32-.02-.36-.14-.23Zm-23.45.04-.16.06v1.42c0 .79.01 1.42.03 1.42.02 0 .11-.02.2-.06l.15-.06v-1.43c0-.78-.02-1.42-.03-1.42l-.2.07Zm1.67.01c.12.06.18.17.1.17-.1 0-.37.26-.48.46-.1.2-.1.24-.1.92v.7l-.13.05a.92.92 0 0 1-.17.05 4.9 4.9 0 0 1-.04-.84c0-.91.04-1.1.25-1.32.1-.11.31-.23.42-.23l.15.04Zm30.34 1.63v1.5l.17.07.19.07a29 29 0 0 0 .02-1.53v-1.52l-.13-.05c-.26-.09-.25-.18-.25 1.46Zm-1.52-1.34c-.2.2-.23.38-.2 1.44.02.84.02.95-.04.95-.05 0-.06.04-.05.13l.01.13.74.23c.4.12.76.22.78.21.02 0 .03-.53.03-1.16 0-1.3-.03-1.42-.29-1.71a.88.88 0 0 0-.67-.34c-.16 0-.22.02-.31.12Zm.73.13c.13.08.32.32.32.38 0 .02-.07.03-.16.03a.78.78 0 0 0-.3.07c-.22.11-.25.25-.25 1.1v.73l-.1-.02a2.35 2.35 0 0 1-.22-.07l-.11-.04.01-1.03.01-1.03.15-.13c.12-.11.16-.12.33-.1.1 0 .24.06.32.11Zm-32.19.11c-.16.06-.3.2-.4.4-.12.22-.12.23-.15 1.33-.01.62-.02 1.12-.01 1.13.01.02 1-.37 1.04-.41.02-.02.03-.5.03-1.07 0-1.06-.02-1.18-.18-1.31-.07-.06-.25-.1-.33-.07Zm.3.2c.05.06.04.09-.08.18-.07.05-.18.19-.25.3-.11.19-.11.21-.13.94l-.01.75-.1.04a.82.82 0 0 1-.13.04c-.01 0-.02-.4-.02-.89 0-.8 0-.9.09-1.05.12-.24.28-.37.44-.37a.3.3 0 0 1 .2.07Zm-1.43.09-.13.06v2.65l.1-.03.18-.07.1-.03v-1.32c0-1.44 0-1.37-.25-1.26Zm36.35 1.55v1.53l.15.06.17.07c.01 0 .02-.69.02-1.53v-1.52l-.17-.07-.17-.07v1.53Zm-1.3-1.22c-.2.15-.22.24-.22 1.34a6 6 0 0 1-.04 1.03c-.03 0-.05.06-.05.14v.14l.6.2.7.21.1.03v-1.12c0-.64-.02-1.2-.05-1.28-.06-.24-.3-.55-.48-.65-.2-.12-.43-.13-.56-.04Zm.49.12c.13.07.31.26.38.39.04.08.03.08-.08.07a.52.52 0 0 0-.48.26c-.05.11-.07.3-.07.86 0 .78.01.76-.24.67l-.14-.05v-.97c0-1.04.02-1.12.22-1.23a.41.41 0 0 1 .4 0Zm-25.24.89.01.52h-.13a1.31 1.31 0 0 0-.25.04c-.03 0-.05.07-.05.15v.15h.32c.26 0 .32.01.32.06 0 .05.06.07.32.07h.31v-1.09l-.42-.21-.43-.22v.53Zm6.9-.42-.61.07a10.8 10.8 0 0 0-4.45 1.38c-.28.18-.34.27-.26.36.07.08.1.07.43-.13 2.23-1.38 5.98-1.8 9.15-1.03a9.9 9.9 0 0 1 2.71 1.1c.32.21.44.24.49.13.03-.1-.07-.2-.42-.41a11.29 11.29 0 0 0-4.3-1.39 25.7 25.7 0 0 0-2.74-.08Zm8.44.63.03.52h-.44v.34h.32c.25 0 .32.01.32.06 0 .05.06.07.31.07h.32v-1.1l-.42-.2a8.15 8.15 0 0 0-.44-.22v.53Zm-21 .04v.24l.33-.02h.33l.01-.23.01-.22h-.68v.23Zm2.88 0v.23h.67v-.46h-.67v.23Zm20.84.21v.23h.68v-.46h-.68v.23Zm3.04 0v.23h.68v-.22l-.02-.22-.33-.01-.33-.01v.23Zm-13.97.1c-1.76.09-3.46.5-4.75 1.13-.43.22-.42.2-.42.88 0 .31 0 .6.03.63.03.05.12.03.5-.12 4.21-1.63 6.62-1.65 10.54-.08l.65.25c.01 0 .02-.3.02-.68l-.02-.68-.5-.26a11.62 11.62 0 0 0-4.32-1.04l-.78-.04a19 19 0 0 0-.95.02Zm-21.67.29c-.15.16-.51.6-.8.98a6.63 6.63 0 0 1-1.26 1.39c-.3.23-.95.58-1.2.64l-.1.03.05-.4.08-.52c.02-.12.1-.18.56-.5.73-.5 1.43-1.02 1.91-1.42.33-.27.46-.35.66-.4.14-.05.28-.08.31-.08.03 0-.06.12-.21.28Zm45.24-.2c.23.05.34.12.68.4.48.4 1.18.92 1.9 1.42.3.2.55.38.55.4l.06.42c.08.5.08.6.01.59-.14 0-.81-.3-1.09-.48a5.2 5.2 0 0 1-1.37-1.45c-.44-.61-.73-.98-1-1.29-.11-.11-.09-.12.26-.02Zm-38.88.16-.27.1v.41l.25-.09c.13-.05.25-.1.27-.12.02-.02.03-.11.02-.22v-.19l-.27.1Zm-.05.71c-1.36.41-2.48.77-2.49.8-.01.03 0 .06.04.07.04.02 1.18-.3 2.54-.71l2.47-.74h3.68l.6.53.6.52h1.16c1 0 1.16 0 1.16-.06 0-.07.06-.07-1.25-.06h-.94l-.14-.12a37.5 37.5 0 0 1-.63-.54l-.5-.43h-3.83l-2.47.74Zm7.44-.27.02.18h1.94l.01-.18.02-.18h-2l.01.18Zm18.07.32-.57.5-1.36.02c-1.19 0-1.37.02-1.37.07s.19.06 1.4.07l1.39.01.57-.5.57-.5h3.72l2.62.86c1.91.64 2.62.85 2.66.82.03-.03.03-.06 0-.09-.02-.02-1.21-.43-2.64-.9l-2.6-.86h-3.82l-.57.5Zm6.44-.25v.2l.24.09c.34.13.36.12.36-.12v-.2l-.25-.09a1.89 1.89 0 0 0-.3-.09c-.03 0-.05.08-.05.2Zm-9.16.14.01.18h1.95v-.18l.02-.18h-2l.02.18Zm-24.83-.03-.23.1-.01.2-.01.22.22-.09c.12-.05.25-.1.28-.1.05-.03.07-.44.02-.44l-.27.1Zm4.36.4-2.39.63c-2.68.7-2.52.66-2.5.74 0 .05.04.07.1.06.04 0 1.18-.3 2.53-.66l2.45-.65h3.78l.59.4.59.4h1.15c1.07 0 1.14 0 1.13-.08-.01-.06-.1-.07-1.12-.08l-1.11-.01-.59-.4-.59-.4h-1.93c-1.1 0-2 .03-2.1.05Zm31.83.24v.2l.24.1.27.08c.02 0 .04-.09.04-.2 0-.2 0-.22-.16-.28a1.83 1.83 0 0 0-.27-.09c-.12-.02-.12-.02-.12.19Zm-8.59.3-.62.34h-1.38c-1.29 0-1.38 0-1.36.07.01.07.12.07 1.4.08l1.38.01.63-.33.62-.34h3.72l2.51.71 2.6.73c.05 0 .09-.02.1-.06.02-.08.26 0-2.87-.9l-2.31-.65h-3.8l-.62.34Zm-23.54.21c0 .24 0 .25.1.25s.11.02.11.21v.21h.85v-.19c0-.16.01-.19.08-.19.08 0 .09-.02.09-.27v-.27h-1.23v.25Zm3.05 0c0 .24 0 .25.1.25s.1.02.1.21v.21h.85v-.19c0-.16.02-.19.09-.19.07 0 .08-.02.08-.27v-.27h-1.22v.25Zm10.82 6.67c0 6.77 0 6.8.08 6.8.09 0 .09-.03.09-6.8s0-6.8-.09-6.8c-.08 0-.08.03-.08 6.8Zm10.27-6.38c0 .23.01.25.1.26.08.01.1.05.1.22l.02.2h.8v-.17c0-.14.01-.17.1-.18.08-.01.09-.03.09-.28v-.28h-.6l-.6-.02v.25Zm2.8 0c0 .24 0 .26.1.26s.1 0 .1.2v.21h.85v-.16c0-.14.01-.17.08-.17.08 0 .09-.03.09-.3v-.29h-1.23v.25Zm-28.75-.06-.44.12-.24.07v.25c0 .22 0 .24.08.22.08-.02.09 0 .09.17 0 .11.01.2.03.2l.3-.08.28-.08.01-.17c.01-.1.04-.19.08-.2.04-.02.06-.1.06-.3a.75.75 0 0 0-.03-.26l-.22.06Zm14.68 6.58v6.51l.27.01.26.02v-13.06h-.55l.02 6.52Zm1.97-.16c0 5.07.01 6.36.05 6.35.05-.02.06-1.33.07-6.36 0-5.62 0-6.35-.05-6.35-.06 0-.07.73-.07 6.36Zm1.06.17v6.53l.26-.02h.27v-6.52l.02-6.52h-.55v6.53Zm1.18.02c0 5.68.01 6.42.07 6.42.05 0 .06-.74.06-6.42s0-6.42-.06-6.42-.07.74-.07 6.42Zm12.73-6.17c0 .21.01.25.08.27.07.03.09.07.09.24v.2l.24.07.37.1c.18.06.19.06.19-.12 0-.14.01-.17.09-.17s.08-.02.07-.26l-.01-.26-.45-.14c-.75-.21-.67-.22-.67.07Zm-19.79-.13-.1.03-.01 6.34-.01 6.35h.29v-6.38c0-3.5-.01-6.37-.03-6.37l-.14.03Zm.8 0c-.07.05-.08.4-.08 6.39 0 6.3 0 6.33.09 6.33.08 0 .08-.03.08-6.38l-.01-6.38-.08.05Zm.85 6.38c0 5.65 0 6.38.06 6.38s.07-.72.06-6.36c-.01-5.05-.02-6.37-.07-6.38-.04-.02-.05 1.27-.05 6.36Zm-10.15-5.07v1.25h1.4v-2.51h-1.4v1.26Zm16.32 5.12v6.33h.3v-12.67h-.3v6.34Zm.56 0 .01 6.3.1.06.1.07v-12.63l-.11-.05-.1-.05v6.3Zm-18.1-.5v5.74h.59l.01-5.65v-5.75c-.02-.09-.04-.1-.31-.1h-.3v5.75Zm1.9-4.62v1.13h-.55v-2.27h.55v1.14Zm1.14 4.61v5.75h.6v-11.5h-.6v5.75Zm16.83-3.38v2.33h2.49v-4.65h-2.49v2.32Zm-24.7-2.19-.33.08v.17c0 .11.02.16.06.16.06 0 .07.5.07 4.2v4.2l.11-.03.23-.06.1-.03.02-4.16c.02-3.9.03-4.17.1-4.22.09-.07.1-.4.02-.4l-.38.09Zm3.81.04-.58.12v1.26c0 1.18 0 1.26.07 1.24.09-.03 1.04-.2 1.1-.2.06 0 .07-2.5.02-2.52-.02-.01-.3.03-.6.1Zm26.09 1.13v1.25h1.4v-2.51h-1.4v1.26Zm-33.55-.7a8.93 8.93 0 0 1-2.08 4.42c-.6.76-.82 1.06-1.13 1.59l-.26.43-.03-.2-.05-.5-.03-.3.19-.2c.4-.43.6-.75 1-1.65.31-.73.47-.97.87-1.32.33-.3.38-.41.25-.54-.1-.11-.22-.08-.5.14-.43.33-.69.72-1.01 1.48-.1.24-.25.56-.33.71-.15.3-.45.75-.5.75-.02 0-.05-.3-.07-.66-.03-.77-.04-.74.48-1.52a8.94 8.94 0 0 1 2-2 15.8 15.8 0 0 0 1.3-1.1l-.1.48Zm46.06.63a9.24 9.24 0 0 1 1.98 1.97c.54.8.53.76.5 1.52-.02.36-.05.66-.07.67-.04.02-.34-.4-.5-.73l-.33-.71a3.4 3.4 0 0 0-1.03-1.5c-.26-.2-.37-.23-.48-.12-.13.13-.08.24.25.54.4.35.56.59.87 1.32a4.9 4.9 0 0 0 1.05 1.7c.15.14.15.2.07.77l-.05.36-.27-.45c-.26-.43-.59-.88-1.42-1.96a8.51 8.51 0 0 1-1.73-3.8l-.13-.6c-.02-.08.05-.04.3.2.19.18.63.55 1 .82Zm-15.39-.98c0 .08-.02.08-.78.08h-.78l-.01 1.86-.01 1.85-.29.02h-.28v-3.9h1.08c1.05 0 1.07 0 1.07.09Zm3.56 1.05v1.1h-.53l-.01-1.06v-1.13c.02-.04.1-.05.28-.04l.26.01v1.12Zm-20.47 1.23v2.33h2.5v-4.66h-2.5v2.33Zm13.77-2.21c-.02.01-.03 2.83-.03 6.25v6.23l.16-.02h.16l.01-6.18.01-6.17-.14-.07c-.08-.04-.16-.05-.17-.04Zm5.05 5.7v5.72h.63v-11.45h-.63v5.73Zm2.83 0v5.72h.63v-5.71l-.02-5.72-.3-.01-.31-.01v5.72Zm4.95-5.5c0 .19 0 .22.08.24.07.02.08.06.08.21 0 .17.02.2.12.24.09.03.1.04.02.03l-.1-.02.02 3.99v3.99l.11.03.23.05.11.03v-3.99c0-2.63.02-3.98.04-3.98.03 0 .05-.07.05-.15 0-.1.02-.15.06-.15.05 0 .06-.05.06-.24v-.24l-.41-.14a6.57 6.57 0 0 0-.45-.13c-.01 0-.03.1-.03.22Zm-32.9.92v1.11l-.15.03-.24.04c-.07.02-.07-.04-.06-1.1l.01-1.13.13-.02a.96.96 0 0 1 .22-.03h.1v1.1Zm-13.52.14c.07.13.31.5.53.8a8.16 8.16 0 0 1 1.46 4.33c-.04.05-.33-.35-.51-.74-.25-.5-.4-.94-.7-2.05-.4-1.42-.49-1.66-.7-1.66-.22 0-.27.16-.13.48.05.1.2.62.35 1.13.37 1.35.52 1.8.78 2.31.25.52.54.88.83 1.03l.19.1.05.34c.02.18.04.34.03.35-.03.03-.53-.37-.72-.58-.97-1.07-1.68-3.14-1.95-5.7-.03-.35-.06-.8-.06-1v-.37l.2.5c.12.26.27.6.35.73Zm22.15-1.12c0 .07-.04.08-.8.09l-.79.01v1.86l-.02 1.85h-.55v-3.9h1.08c1.05 0 1.08 0 1.08.09Zm35.32 1.23c-.26 2.57-.97 4.66-1.95 5.73-.21.23-.69.6-.72.57-.02-.01 0-.17.03-.35l.05-.33.19-.1c.4-.2.77-.77 1.09-1.6.08-.24.3-.93.47-1.55.17-.62.35-1.22.4-1.32.14-.32.1-.48-.14-.48-.2 0-.3.24-.69 1.66-.27.99-.52 1.72-.71 2.11a2.5 2.5 0 0 1-.52.71l.05-.64a8.32 8.32 0 0 1 1.48-3.79c.42-.61.7-1.12.91-1.68l.1-.26.02.33c0 .18-.02.63-.06 1Zm-45.1-1.25-.23.06-.18.04v11.2l.24-.08.25-.07v-5.59c.01-3.07 0-5.58-.01-5.58a.38.38 0 0 0-.08.02Zm30.45 1.3v1.27l.48.1.53.14c.04.01.05-.26.05-1.26v-1.27l-.44-.1c-.24-.04-.47-.1-.53-.1l-.09-.03v1.26Zm-19.28-1.02-.15.09-.03 3.52c-.02 1.94-.03 4.6-.03 5.93v2.4l.18-.02.2-.04v-5.99l-.02-5.98-.15.09Zm19.63 0 .16.03v1.11c0 .61-.01 1.11-.02 1.11l-.22-.04-.18-.05v-1.1c0-.86 0-1.11.05-1.11l.21.04Zm-32.28.14-.45.15v1.26c0 1 0 1.25.05 1.24l.48-.14.5-.15c.06-.04.07-.14.07-1.28v-1.23h-.1c-.05 0-.3.07-.55.15Zm33.41 5.59v5.74l.27.07.3.07c.01 0 .02-2.58.01-5.73v-5.74l-.26-.08a3.05 3.05 0 0 0-.29-.07c-.01 0-.03 2.58-.03 5.74Zm-43.03-5.5c.1.11.13.26.08.39-.09.2-.29.21-.38.02-.07-.16-.06-.25.04-.37.1-.13.17-.14.26-.04Zm54.7.04c.1.12.1.21.04.36-.1.2-.3.2-.38-.01a.36.36 0 0 1 .08-.39c.09-.1.15-.1.26.04Zm-45.03 1.13-.02 1.12-.18.05-.18.05v-2.24l.16-.04.2-.05c.01 0 .02.5.02 1.11Zm34.37-.76v2.49l.45.1c.24.07.47.12.5.12.06 0 .07-.16.07-1.26 0-.7-.01-1.26-.02-1.26l-.5-.1c-.53-.13-.47-.12-.5-.1Zm.44.21c.02.02.03.53.03 1.14 0 1.04 0 1.1-.07 1.09a5.23 5.23 0 0 0-.2-.05l-.11-.02v-2.23l.16.03a1 1 0 0 1 .19.04Zm-30.24 1.3v.23h1.56l.03-.1c.02-.08.06-.11.13-.11.08 0 .1-.02.1-.13v-.12h-1.81v.23Zm-2.1.12-.69.13v.47l.33-.06c1.02-.19 1.04-.2 1.07-.3a.14.14 0 0 1 .11-.12c.08-.01.1-.04.1-.14 0-.15-.02-.15-.92.02Zm25.94.09v.23h1.61v-.1c0-.1.02-.11.13-.11s.13-.01.13-.13v-.12h-1.87v.23Zm3.26.41v.22l.52.12.61.14c.08.02.1 0 .1-.07 0-.06.02-.09.08-.09.11 0 .12-.23.01-.26a22.8 22.8 0 0 0-1.26-.28c-.04 0-.06.06-.06.22Zm-31.45.1-.71.2-.22.07v.23c0 .12.01.23.03.23.04 0 .74-.2 1.05-.3.1-.03.15-.08.18-.17.02-.06.07-.12.1-.12.06 0 .07-.04.07-.15v-.14l-.5.15Zm33.94.72v.24l.5.12.6.13c.07.03.09.01.09-.06 0-.06.02-.09.08-.09.07 0 .09-.03.09-.12 0-.14.04-.13-.84-.33l-.52-.12v.23Zm-29.34 1.56v1.25l.66.03c.36.01.67.02.7 0 .03-.02.04-.44.04-1.28v-1.26h-.7l-.7.02v1.24Zm12.88 1.2c-.04 4.04-.03 4.97.04 4.97.06 0 .06-.2.06-1.44l.03-3.72c.03-2 .02-2.27-.03-2.27-.06 0-.07.31-.1 2.46Zm-12.2-1.18v1.11h-.55v-2.22h.55v1.11Zm23.2-1.04c-.02.01-.03.58-.03 1.25v1.23l.51.02.7.03h.18v-2.56h-.67c-.36 0-.68.01-.7.03Zm-26.19.13-.52.1v1.26c0 .69.01 1.25.03 1.25.03 0 1-.16 1.1-.19l.1-.02v-2.52h-.1l-.61.12Zm26.84 1.12v1.11h-.55v-2.22h.57l-.02 1.11Zm-5.88 2.85v3.88h2.32v-7.76h-2.32v3.88Zm8.42-2.61.01 1.27.49.11.52.12c.02 0 .02-.57.02-1.27l-.01-1.26-.47-.1c-.25-.05-.49-.1-.52-.12-.04-.01-.05.24-.04 1.25Zm-29.3-.12c0 .61-.02 1.12-.04 1.13l-.23.05-.2.03v-2.23l.18-.04.23-.04c.04 0 .05.24.05 1.1Zm23.03-.9c0 .08-.02.09-.73.09h-.74l-.02 3.4v3.42h-.47l-.01-3.5-.01-3.49h1c.96 0 .98 0 .98.08Zm6.62-.01.15.02v2.25l-.2-.05-.2-.05-.01-1.13c-.01-.96 0-1.12.05-1.1.03.02.12.04.2.06Zm-32.25.13-.5.16v1.24c0 .7.02 1.25.04 1.25.04 0 .26-.06.78-.21l.29-.08v-1.26c0-.98-.01-1.26-.06-1.26l-.55.16Zm8.9 3.72v3.88h2.31l.02-.26v-3.88l-.01-3.62h-2.33v3.88Zm2.15-3.63c0 .08-.03.09-.74.09h-.74l-.01 3.4-.01 3.42h-.47v-3.5l-.02-3.49h1c.96 0 .99 0 .99.08Zm-11.03 1.2v1.1l-.12.03-.2.05c-.06.02-.07-.05-.07-1.09v-1.11l.12-.04c.28-.1.27-.17.27 1.05Zm34.36-.93v1.26l.03 1.17.46.12.5.12c.02 0 .03-.57.02-1.27l-.01-1.26-.5-.11c-.49-.11-.49-.11-.5-.03Zm.35.13.12.03v2.23l-.16-.03a1 1 0 0 1-.19-.05 10.4 10.4 0 0 1-.03-1.13c0-1.04 0-1.11.07-1.1l.2.05Zm-41.27.73a.6.6 0 0 1 .04.25c0 .18-.11.33-.23.29-.14-.06-.18-.41-.06-.56.07-.08.2-.07.25.02Zm48.49.07c.07.14.02.39-.09.46-.18.1-.33-.29-.2-.53.06-.12.22-.08.29.07Zm-47.43 2.07a51 51 0 0 1-.3 3.55 116.4 116.4 0 0 0-.25 2.2c0 .04-.04 0-.09-.09-.08-.15-.08-.17-.02-.48.1-.55.15-1.11.2-2.38.04-1.15.07-1.48.2-1.96.06-.18.06-.2-.02-.29-.12-.13-.27-.1-.37.1a7.95 7.95 0 0 0-.29 2.55c0 .3-.01.7-.03.88l-.03.31-.03-.24c-.02-.13-.03-.75-.02-1.36.04-1.77.13-2.14 1.02-4.16.05-.1.05-.1.06.12.01.12 0 .69-.03 1.25Zm46.42-.65c.34.8.5 1.33.62 1.93.07.4.13 2.5.07 2.87l-.03.24-.03-.31c-.02-.18-.03-.57-.03-.88a7.95 7.95 0 0 0-.3-2.56c-.09-.18-.24-.22-.36-.09-.08.08-.08.1-.03.29.14.48.17.8.22 1.96.04 1.26.09 1.83.19 2.36.05.27.05.33 0 .46-.04.08-.08.14-.09.13a426.15 426.15 0 0 0-.27-2.2c-.23-1.92-.43-5.11-.31-5l.35.8Zm-36.36-.5v.23h.78c.74 0 .78 0 .8-.08.02-.05.07-.08.14-.08.09 0 .1-.02.1-.15v-.15h-1.81v.23Zm-2.05.13-.73.14c-.03 0 0 .47.02.47a23.12 23.12 0 0 0 1.36-.25v-.1c0-.08.04-.11.11-.13.08-.02.1-.05.1-.15 0-.16.06-.16-.86.02Zm25.9.08v.23h.8c.76 0 .8 0 .8-.08 0-.06.04-.08.12-.1.1 0 .12-.03.13-.14l.01-.14h-1.87v.23Zm3.25.2c0 .22.01.24.1.26l.6.15.53.12v-.1c0-.1.01-.1.08-.1.07.03.09.01.09-.1v-.14l-.6-.14-.7-.16c-.1-.02-.1 0-.1.22Zm-31.69.19c-.34.1-.65.2-.66.22-.02.02-.03.13-.03.24l.02.21.57-.16c.6-.18.68-.22.68-.33 0-.04.03-.09.08-.1.06-.01.08-.05.08-.15 0-.08-.02-.13-.05-.13l-.69.2Zm34.18.44c0 .19.02.24.08.26.16.05 1 .23 1.05.23.03 0 .06-.04.06-.08 0-.07.02-.09.08-.07.07.02.09 0 .09-.11v-.14l-.58-.14-.68-.16c-.09-.02-.1 0-.1.21Zm-29.34 1.59v1.25h1.4v-2.51h-1.4v1.26Zm.67-.02-.01 1.13h-.26l-.27.02v-2.27h.55v1.12Zm-2.9-.91-.58.11v1.26l-.02 1.26.56-.1.62-.11c.04-.02.05-.31.05-1.28 0-.7-.02-1.26-.03-1.26l-.6.12Zm0 1.28v1.1l-.16.03-.24.05c-.07.02-.07-.04-.06-1.1l.01-1.13.13-.02.22-.04h.1v1.1Zm-11.57-.98c.16.16.05.5-.16.5-.22 0-.33-.33-.16-.5.11-.11.22-.11.32 0Zm53.4 0c.13.2.03.5-.17.5-.13 0-.25-.14-.25-.3 0-.25.28-.38.41-.2Zm-48.83.65c.04.18.16.55.26.81.26.66.3.82.35 1.43a25.45 25.45 0 0 1-.43 5.22 1 1 0 0 1-.14-.2c-.09-.15-.1-.26-.15-.85-.05-.8-.01-1.59.16-2.84.15-1.1.16-2.27.04-2.42-.1-.1-.2-.1-.3-.01-.05.06-.06.19-.06.7 0 .46-.04.93-.14 1.7-.08.68-.14 1.37-.16 1.9l-.02.83-.25-.44-.25-.44-.02-.81a11.4 11.4 0 0 1 .71-4.26c.29-.87.3-.92.33-.76l.07.44Zm44.32.33c.5 1.5.67 2.45.7 3.72.04 1.09 0 1.3-.28 1.8l-.23.4-.02-.84c-.02-.53-.08-1.22-.16-1.87-.1-.75-.14-1.2-.14-1.68 0-.53-.01-.66-.07-.72-.09-.1-.19-.1-.29.01-.12.14-.1 1.31.04 2.42.17 1.26.21 2.05.16 2.84-.05.65-.05.68-.18.88-.07.12-.14.2-.15.17l-.11-.92a25.78 25.78 0 0 1-.28-4.3c.05-.62.09-.77.33-1.36a5 5 0 0 0 .34-1.3c0-.22.07-.07.34.75Zm-11.24.7v1.25h1.4v-2.51h-1.4v1.25Zm3.21.02v1.26l.43.05.53.05h.1v-2.51l-.2-.02-.53-.05-.33-.03v1.25Zm-2.52-1.1c-.01.01-.02.5-.02 1.1v1.07h-.54v-2.23l.28.01c.16 0 .28.03.28.04Zm2.88.03h.15v2.24l-.21-.01-.21-.02v-1.13c0-1.02 0-1.13.06-1.11.04.01.13.03.21.03Zm-40.94 2.11c.7.5 1.23.97 1.58 1.43a20.3 20.3 0 0 1 1.18 2.24l-.27-.17a12.03 12.03 0 0 1-2.3-2.46c-.3-.42-.43-.48-.56-.28-.07.11-.07.12.03.29.27.47 1 1.36 1.64 2.01.68.7 1.24 1.07 1.66 1.15.14.02.18.05.31.27l.15.25-.2-.03c-.33-.05-.9-.22-1.22-.37-1.13-.53-1.95-1.54-2.66-3.25-.18-.45-.82-2.23-.82-2.29a11.84 11.84 0 0 0 1.48 1.21Zm53.67-.28-.51 1.36c-.7 1.71-1.53 2.72-2.66 3.25-.32.15-.9.32-1.23.37l-.2.03.06-.1.15-.25c.07-.11.13-.15.25-.17.26-.04.64-.25.99-.52a13.6 13.6 0 0 0 2.28-2.56c.13-.22.14-.24.08-.35-.05-.07-.1-.1-.19-.1-.1 0-.15.04-.37.36-.47.64-.92 1.18-1.48 1.74-.47.45-1.06.93-1.11.88a17.47 17.47 0 0 1 1.18-2.22c.36-.47.88-.94 1.59-1.44a11.63 11.63 0 0 0 1.48-1.21l-.31.93Zm-41.44-.28c.02.23.01.25-.08.31-.1.06-.1.1-.1.42v.36h1.14v-.35c0-.32-.01-.36-.1-.45-.1-.08-.11-.14-.11-.32v-.22h-.78l.03.25Zm3.03 0c0 .2-.02.26-.09.3-.07.05-.08.1-.08.42v.37h1.14v-.33c0-.3-.01-.34-.1-.43-.1-.08-.11-.13-.11-.34v-.24h-.76v.25Zm-1.99.23v.23h1.56l.02-.1c.02-.08.06-.11.13-.11.1 0 .1-.02.1-.13v-.12h-1.8v.23Zm23.08.08c0 .23 0 .28-.08.32-.08.04-.09.08-.09.42v.38l.56-.02h.57v-.34c.02-.3.01-.34-.09-.44-.08-.08-.1-.16-.11-.34l-.02-.23-.37-.01-.37-.01v.27Zm2.8-.02c.03.23.02.26-.07.33-.1.08-.1.11-.1.44v.36h1.14v-.35c0-.31-.01-.35-.1-.44-.1-.09-.11-.14-.11-.35v-.24h-.78l.03.25Zm-19.33 1.11v.15h13.2v-.29h-13.2v.14Zm-8.85 0-.99.06c-.02 0-.05.06-.05.12v.1l.43-.02 1.13-.05.68-.03v-.12c0-.1-.01-.12-.14-.11l-1.06.06Zm1.46.15v.21h3.84v-.42h-3.84v.21Zm23.59.25v.13h3.84v-.25h-3.84v.12Zm3.97.09v.2h2.32v-.41h-2.32v.2Zm-20.17.52v.15h13.24v-.3h-13.24v.15Zm.47.92v.15h12.39v-.29h-12.4v.14Zm-2.58.74v.17h17v-.34h-17v.17Zm5.33 1.42c1.72.11 2.95.7 3.5 1.68l.23.38c.1.17.18.16.29-.05.72-1.42 2.22-2.09 4.3-1.92.9.07 1.66.2 2.79.51l.64.17v.53a781.37 781.37 0 0 1-.17 9.38c0 .03-.02.03-1.56-.12a23.2 23.2 0 0 0-3.05-.18c-1.63.07-2.54.47-2.97 1.33l-.15.3-.16-.3c-.4-.75-1.28-1.22-2.62-1.39a21.6 21.6 0 0 0-4.26.15l-.65.07h-.1v-10l.15-.06a11.2 11.2 0 0 1 3.79-.48Zm-16.54.16c.12.14.13.5.02.63-.21.24-.44.08-.44-.3 0-.25.12-.44.26-.44.04 0 .12.05.16.1Zm39.83 0c.17.22.07.77-.15.77-.04 0-.11-.05-.17-.1-.2-.21-.1-.78.15-.78.05 0 .12.05.17.1Zm-27.5 9.73-.03.8-.55.75-.6.82c-.07.05-.07-.46-.04-4.7l.02-4.77.6-.88.6-.89.01 4.03c.01 2.22 0 4.4-.01 4.84Zm-16.92-8.58c.17.04.63.14 1.02.2a8.8 8.8 0 0 1 1.72.43c.32.12.33.13.73.61a35.96 35.96 0 0 0 1.02 1.22l-.66-.24c-1.28-.49-1.74-.72-2.08-1.03-.25-.22-.31-.25-.43-.17-.23.15-.07.42.44.75.42.28.77.44 1.82.84 1.3.5 1.83.76 2.1 1.03l.2.22h-.4c-.8 0-1.6-.19-2.28-.53-.87-.44-1.65-1.14-2.9-2.64-.3-.35-.56-.67-.6-.7-.08-.1-.07-.1.3 0Zm48.98-.02-.6.71c-.6.71-1.09 1.25-1.52 1.66a5.18 5.18 0 0 1-3.66 1.5h-.4l.2-.21c.27-.27.78-.52 2.12-1.03a8.36 8.36 0 0 0 1.8-.84c.5-.33.67-.6.45-.75-.13-.08-.21-.05-.43.16-.21.2-.63.45-1.09.65-.5.2-1.65.64-1.66.63a44.45 44.45 0 0 0 .98-1.17c.43-.52.43-.53.76-.66.43-.16.85-.27 1.73-.42.39-.07.84-.17.99-.21.37-.1.41-.1.33-.02Zm-15.23.96.53.92-.05 4.68-.06 4.7-.6-.87-.6-.88.08-4.28.08-4.77c0-.29.02-.49.04-.46l.58.96Zm-26.23-.24c.15.18.23.3.19.29-.1-.04-.28.07-.28.17a3.74 3.74 0 0 1-.19-.78l.28.32Zm33.85.08c-.08.39-.12.53-.12.38 0-.1-.18-.2-.28-.17-.04.01.04-.11.19-.3l.28-.32-.07.4Zm-35.56-.25c.13.16.02.39-.2.39-.14 0-.21-.07-.21-.24 0-.24.27-.33.41-.15Zm37.42-.02c.06.05.07.3 0 .36-.13.12-.42 0-.42-.18 0-.22.23-.32.42-.18Zm-37.75.87c.06 0 .09.06.13.22.02.13.18.5.35.83a5 5 0 0 1 .48 1.17c-.02.01-.26-.21-.55-.5-.48-.47-.53-.54-.6-.76-.08-.29-.19-.9-.19-1.05v-.12l.16.1c.08.06.18.11.22.11Zm2.95.42a17.1 17.1 0 0 1 2.72 4.13c.24.56.52 1.36.5 1.4a5.6 5.6 0 0 1-.91-.5c-.21-.15-.15-.03-.97-1.93a24.62 24.62 0 0 0-1.81-3.63c-.12-.18-.05-.1.47.53Zm32.29-.51c-.5.74-1.05 1.85-1.81 3.61-.74 1.73-.77 1.8-.9 1.89a7.6 7.6 0 0 1-.98.53c-.03-.03.33-1.01.55-1.51.53-1.2 1.24-2.26 2.7-4.04.48-.59.6-.71.44-.48Zm2.83.27c-.04.21-.1.53-.15.7l-.09.33-.52.51-.55.5c-.03-.04.17-.54.48-1.17.17-.33.33-.7.35-.83.04-.16.07-.22.13-.22.03 0 .13-.05.21-.1a.7.7 0 0 1 .17-.1c.01 0 0 .16-.03.38Zm-35.7.4c.16.27.45.8.63 1.18a36.9 36.9 0 0 1 1.34 3.12c-.1-.06-.74-.5-1.17-.82l-.46-.33-.08-.28c-.2-.63-.69-3.13-.68-3.45 0-.09.07 0 .42.59Zm33.23.5a22.38 22.38 0 0 1-.5 2.35c-.09.28-.1.29-.46.56-.5.37-1.25.88-1.27.86a43.4 43.4 0 0 1 1.39-3.15c.45-.9.98-1.8 1-1.7 0 .04-.06.53-.16 1.08Zm-20.7-1.02c-1.54.29-2.43 1.65-2.25 3.47.11 1.22.64 2.14 1.48 2.55.39.2.72.27 1.28.27.6 0 .9-.06 1.38-.3.3-.15.32-.17.4-.39.13-.31.09-.36-.2-.2-1.2.64-2.37.3-2.93-.82a3.2 3.2 0 0 1-.33-1.64c0-.53.01-.73.07-.97.1-.36.28-.73.47-.96.55-.67 1.7-.76 2.32-.19l.23.21.03.4.03.4h.24l.03-.39.06-.64c.08-.48.09-.46-.32-.6a3.84 3.84 0 0 0-1.98-.2Zm4.54.06h-1.68v.17c0 .18.05.21.32.21.26 0 .25-.1.25 2.66v2.51l-.1.08a.46.46 0 0 1-.28.08h-.19v.37h1.11l1.11-.01v-.34l-.23-.02c-.4-.05-.36.17-.37-2.73l-.02-2.57.78.03c.42 0 .82.04.88.06.15.06.17.13.2.57l.02.36h.28v-.41l.03-.74.03-.32-.23.01-1.9.03Zm2.3.17c0 .16 0 .17.15.2.27.04.39.1.45.24.04.07.24.62.45 1.2a155.56 155.56 0 0 0 1.02 2.85c0 .1-.17.37-.28.46a.56.56 0 0 1-.6 0 .9.9 0 0 1-.27-.3c-.09-.12-.16-.2-.2-.19-.08.02-.08.14-.03.95l.04.51.16.04c.35.1.74-.08.98-.44.26-.38.8-1.52 1.45-3.06.84-2.01.92-2.15 1.26-2.23.19-.04.23-.1.23-.25v-.14h-1.78v.16c0 .16.01.17.19.21.42.1.45.15.35.52-.1.34-.88 2.42-.9 2.42-.04 0-.68-1.7-.86-2.26-.19-.58-.17-.62.27-.7.15-.02.16-.03.16-.19v-.16h-2.25v.16Zm-10.6.3-.3 7.41c.01.01.08-.08.15-.2l.14-.22.03-3.7.03-3.7c-.01-.01-.03.18-.04.41Zm16.69 1.21-.03 3.7-.03 2.28.13.2.15.2-.06-3.02-.08-3.8c0-.44-.03-.83-.05-.88a9.7 9.7 0 0 0-.03 1.32Zm-17.09.07c0 .28-.27 6.06-.31 6.63l-.02.29.12-.13c.16-.18.16-.18.22-3.94.02-1.66.05-3.04.06-3.07 0-.03 0-.06-.03-.06-.02 0-.04.13-.04.28Zm17.47 3.33v3.5l.12.14.13.14v-.15c0-.41-.22-7.05-.23-7.09-.01-.02-.02 1.53-.02 3.46Zm-25.6-.88a37.18 37.18 0 0 0 1.53 1.1 4.9 4.9 0 0 1-1.4-.6c-.35-.23-.46-.24-.54-.06-.07.14 0 .24.29.44.63.42 1.48.7 2.46.82.18.03.38.11.86.37l.64.34-.15.06c-.26.1-.74.21-1.17.26-1.2.13-2.28-.29-3.37-1.3-.2-.2-.7-.7-1.08-1.12l-.71-.76.83.02c.71.02.94 0 1.14-.07l.67.5Zm34.25-.44h.9l-.83.83a9.65 9.65 0 0 1-2.47 2 4.27 4.27 0 0 1-3.47.17 14.62 14.62 0 0 0 .86-.47c.6-.33.6-.33 1.2-.43.65-.11 1.3-.3 1.68-.5.35-.17.73-.43.79-.53a.22.22 0 0 0-.1-.3c-.1-.04-.16-.01-.51.2-.37.23-.88.46-1.23.54-.13.03-.12.02.04-.1l.57-.39.93-.68c.45-.33.55-.4.63-.37.06.02.52.03 1.01.03Zm-19.82 4.07c.5.1.78.17 1.13.34a2 2 0 0 1 1.18 1.59l.03.24-.24-.02a3.79 3.79 0 0 1-1.03-.35c-.13-.08-.02-.09-4.03.05l-3.44.1-.28-.02.64-.87c.56-.77.65-.87.77-.89l2.55-.25c.53-.04 2.37.01 2.72.08Zm6.66.02a66.46 66.46 0 0 1 3.44.3c.14.02.18.06.77.94l.63.92-.22.01c-.12 0-1.84-.09-3.82-.21l-3.59-.22-.25.13a2.3 2.3 0 0 1-.9.27h-.14l.03-.22c.06-.54.34-1.07.73-1.35.52-.38 1.15-.53 2.5-.6l.82.03Zm-9.85.34-1.03.05c-.04.01.47.02 1.14.03 2.51 0 3.3.17 4.38.9.46.3.46.3.35.15-.18-.26-.7-.73-.92-.85-.44-.24-.77-.29-1.91-.3-.57-.01-1.47 0-2 .02Zm7.9.13c-.62.09-.96.3-1.47.9-.23.26-.23.26.18-.02.54-.36 1-.55 1.68-.66.28-.05.83-.08 2.17-.1a17.4 17.4 0 0 0 1.4-.04c-.22 0-.96-.03-1.65-.07a13.74 13.74 0 0 0-2.3-.01Zm-8.79.24c-.1.02-.17.05-.17.08 0 .05.23.06 1.17.07 1.25.01 1.65.05 2.82.28.36.07.66.12.67.1.1-.1-.2-.2-1.25-.38a14.8 14.8 0 0 0-3.24-.15Zm10.89.1c-.62.02-1.26.1-1.94.25-.36.07-.43.1-.43.16 0 .1.03.1.38.02.73-.17 2.45-.34 2.93-.3.1.02.4.03.65.05.45.02.48.02.48-.06 0-.07-.04-.08-.35-.1-.59-.05-1.13-.05-1.72-.02Zm-11.42.18c-.34.03-.46.06-.46.12 0 .09.05.1.48.05.55-.05 2.35 0 3 .08.79.1.85.1.86.01.02-.07 0-.08-.83-.18-.5-.06-2.61-.12-3.05-.08Zm11.88.19c-.84.05-1.79.17-1.85.23-.12.1.06.12.66.05a15.8 15.8 0 0 1 2.83-.12c.54.03.8.04.83 0 .1-.09-.06-.12-.75-.16a9.88 9.88 0 0 0-1.72 0Z"></path></svg><svg viewBox="0 0 14 14" id="shortcut-odnoklassniki"><path d="M2.33 0a2.33 2.33 0 0 0-2.33 2.33v9.34a2.33 2.33 0 0 0 2.33 2.33h9.34a2.33 2.33 0 0 0 2.33-2.33v-9.34a2.33 2.33 0 0 0-2.33-2.33h-9.34Zm4.67 2.33a2.34 2.34 0 1 1 0 4.68 2.34 2.34 0 0 1 0-4.68Zm0 1.17a1.17 1.17 0 1 0 0 2.33 1.17 1.17 0 0 0 0-2.33Zm-2.05 3.8c.12 0 .23.02.33.09.02.01.76.49 1.72.49s1.71-.49 1.72-.5a.58.58 0 0 1 .65.98c-.04.02-.68.44-1.61.61l1.7 1.7a.58.58 0 0 1-.83.83l-1.63-1.63-1.63 1.63a.58.58 0 1 1-.82-.83l1.7-1.7a4.62 4.62 0 0 1-1.62-.61.58.58 0 0 1 .32-1.07Z"></path></svg><svg viewBox="0 0 16 16" id="shortcut-rutube"><path d="M14.53 3.31a1.48 1.48 0 0 0 1.04-.48 1.83 1.83 0 0 0 0-2.34c-.14-.16-.3-.28-.48-.36a1.33 1.33 0 0 0-.56-.13c-.4 0-.77.17-1.05.48a1.84 1.84 0 0 0 0 2.35c.28.3.66.48 1.05.48Z"></path><path fill-rule="evenodd" clip-rule="evenodd" d="M2.86 15.98h-2.86v-12.85h10.89c.73 0 1.44.33 1.96.91.52.59.82 1.38.82 2.21v2.58c0 .73-.25 1.44-.7 1.99-.43.54-1.04.88-1.7.94l2.77 4.24h-3.2l-2.54-4.23h-5.44v4.2Zm-.02-10.03v3h7.2a.74.74 0 0 0 .52-.24.92.92 0 0 0 .22-.59v-1.34a.88.88 0 0 0-.21-.58.7.7 0 0 0-.52-.25h-7.2Z"></path></svg><svg viewBox="0 0 23 20" id="shortcut-telegram"><path d="M20.27.84s1.97-.82 1.8 1.18c-.05.83-.54 3.72-.93 6.84l-1.31 9.26s-.11 1.35-1.1 1.59c-.99.23-2.47-.83-2.74-1.06-.22-.18-4.12-2.83-5.49-4.13-.39-.35-.82-1.06.05-1.89l5.77-5.9c.65-.7 1.31-2.35-1.43-.35l-7.68 5.6s-.88.6-2.53.06l-3.56-1.18s-1.32-.88.93-1.76c5.49-2.77 12.24-5.6 18.22-8.26Z"></path></svg><svg viewBox="0 0 24 14" id="shortcut-vk"><path fill-rule="evenodd" clip-rule="evenodd" d="M.86.73s.06 2.95.43 4.36a13.03 13.03 0 0 0 1.94 4.25 11.36 11.36 0 0 0 6.78 3.98c1.8.31 3.95.46 4.01.31.07-.15.12-1.3.12-2.35v-1.9l.64.13c1.69.32 3.16 1.77 3.94 3.03l.67 1.1h4.35c0-2.71-2.54-5.1-5.04-6.49 0 0 .22-.1.95-.7 1.78-1.47 3.18-3.55 3.24-5.72h-3.91c-.93 1.58-2.55 4.88-4.84 4.88v-4.88h-4.39v8.14c-3.51 0-4.39-6.07-4.55-8.14h-4.34Z"></path></svg><svg viewBox="0 0 15 15" id="shortcut-zen"><path d="M14.67 7.17a.33.33 0 0 0 .33-.36 7.52 7.52 0 0 0-6.8-6.8.27.27 0 0 0-.26.08.33.33 0 0 0-.1.24c.05 4.8.68 6.77 6.83 6.84Zm0 .66c-6.15.07-6.78 2.03-6.84 6.84a.33.33 0 0 0 .36.33 7.52 7.52 0 0 0 6.8-6.81.33.33 0 0 0-.32-.36Zm-7.88-7.83a7.52 7.52 0 0 0-6.79 6.81.33.33 0 0 0 .33.36c6.13-.07 6.76-2.04 6.82-6.84a.33.33 0 0 0-.36-.33Zm-6.46 7.83c-.1-.01-.18.04-.24.1a.33.33 0 0 0-.09.26 7.52 7.52 0 0 0 6.82 6.8.33.33 0 0 0 .33-.32c-.06-4.8-.7-6.77-6.82-6.84Z"></path></svg><svg viewBox="0 0 40 14" id="triangle"><path d="m20 14-19.05-13.5h38.1l-19.05 13.5Z"></path></svg></svg>