<svg width="20" height="21" viewBox="0 0 20 21" fill="none" xmlns="http://www.w3.org/2000/svg">
<path d="M1.18724e-09 10.4869C0.00996569 12.8451 0.815303 15.131 2.28571 16.9747C3.75612 18.8184 5.80558 20.112 8.10249 20.6463C10.3994 21.1806 12.8094 20.9243 14.9426 19.9188C17.0757 18.9134 18.8072 17.2176 19.857 15.1059C19.975 14.906 20.016 14.6698 19.9721 14.4418C19.9283 14.2138 19.8027 14.0097 19.6189 13.8678C19.5073 13.783 19.3785 13.7239 19.2415 13.6947C19.1044 13.6654 18.9627 13.6668 18.8262 13.6986C18.6898 13.7304 18.5621 13.792 18.4522 13.8789C18.3422 13.9657 18.2528 14.0758 18.1903 14.2011C17.5008 15.6615 16.4084 16.8946 15.0418 17.755C13.6751 18.6155 12.0911 19.0677 10.4761 19.0582C9.04602 19.0595 7.63833 18.703 6.38128 18.0211C5.12424 17.3392 4.05778 16.3536 3.27908 15.1542C2.50037 13.9547 2.03415 12.5794 1.92291 11.1537C1.81166 9.7279 2.05892 8.29697 2.64216 6.99122C3.22539 5.68547 4.12607 4.5464 5.26213 3.67777C6.3982 2.80915 7.73355 2.23859 9.14653 2.01806C10.5595 1.79753 12.0052 1.93404 13.3519 2.41517C14.6987 2.89629 15.9036 3.70673 16.857 4.77265H14.3332C14.0979 4.76835 13.8687 4.84717 13.6857 4.99524C13.5028 5.1433 13.378 5.35114 13.3332 5.58217C13.3125 5.71866 13.3217 5.85803 13.3602 5.99062C13.3987 6.1232 13.4656 6.24583 13.5561 6.35001C13.6467 6.45419 13.7589 6.53743 13.8848 6.59396C14.0108 6.65049 14.1475 6.67896 14.2856 6.6774H19.0475C19.3 6.6774 19.5423 6.57706 19.7209 6.39845C19.8995 6.21985 19.9998 5.97761 19.9998 5.72502V1.01078C20.0041 0.775486 19.9253 0.546216 19.7772 0.363308C19.6292 0.180399 19.4213 0.0555699 19.1903 0.0107845C19.0538 -0.00993324 18.9144 -0.000727032 18.7819 0.0377653C18.6493 0.0762576 18.5267 0.143116 18.4225 0.233707C18.3183 0.324299 18.2351 0.436457 18.1785 0.562413C18.122 0.688368 18.0935 0.825107 18.0951 0.963158V3.29647C16.6553 1.77078 14.7905 0.712512 12.7424 0.258694C10.6942 -0.195124 8.55701 -0.0235831 6.60747 0.751103C4.65793 1.52579 2.98587 2.86794 1.80781 4.60374C0.629758 6.33955 -3.15741e-05 8.38907 1.18724e-09 10.4869Z" fill="#668BD4"/>
<path d="M15.238 14.2962C15.0682 14.2997 14.9016 14.2497 14.7618 14.1533L9.52374 11.0105V5.72483C9.52374 5.47225 9.62408 5.23001 9.80269 5.0514C9.98129 4.8728 10.2235 4.77246 10.4761 4.77246C10.7287 4.77246 10.9709 4.8728 11.1495 5.0514C11.3281 5.23001 11.4285 5.47225 11.4285 5.72483V9.96289L15.7142 12.5343C15.824 12.5933 15.9205 12.6744 15.9976 12.7725C16.0746 12.8706 16.1305 12.9836 16.1618 13.1043C16.1932 13.225 16.1992 13.3509 16.1795 13.4741C16.1598 13.5973 16.1149 13.715 16.0475 13.82C15.9691 13.9659 15.8521 14.0874 15.7094 14.1714C15.5666 14.2553 15.4036 14.2985 15.238 14.2962Z" fill="#668BD4"/>
</svg>
