<svg width="20" height="20" viewBox="0 0 20 20" fill="none" xmlns="http://www.w3.org/2000/svg">
<path d="M7.49995 20.0055H0.833328C0.612316 20.0055 0.400355 19.9177 0.244076 19.7614C0.0877968 19.6051 0 19.3931 0 19.1721C0 18.9511 0.0877968 18.7392 0.244076 18.5829C0.400355 18.4266 0.612316 18.3388 0.833328 18.3388H7.49995C7.72096 18.3388 7.93292 18.4266 8.0892 18.5829C8.24548 18.7392 8.33328 18.9511 8.33328 19.1721C8.33328 19.3931 8.24548 19.6051 8.0892 19.7614C7.93292 19.9177 7.72096 20.0055 7.49995 20.0055ZM5.8333 16.6721H0.833328C0.612316 16.6721 0.400355 16.5843 0.244076 16.4281C0.0877968 16.2718 0 16.0598 0 15.8388C0 15.6178 0.0877968 15.4058 0.244076 15.2496C0.400355 15.0933 0.612316 15.0055 0.833328 15.0055H5.8333C6.05431 15.0055 6.26627 15.0933 6.42255 15.2496C6.57883 15.4058 6.66662 15.6178 6.66662 15.8388C6.66662 16.0598 6.57883 16.2718 6.42255 16.4281C6.26627 16.5843 6.05431 16.6721 5.8333 16.6721ZM4.16664 13.3388H0.833328C0.612316 13.3388 0.400355 13.251 0.244076 13.0948C0.0877968 12.9385 0 12.7265 0 12.5055C0 12.2845 0.0877968 12.0725 0.244076 11.9163C0.400355 11.76 0.612316 11.6722 0.833328 11.6722H4.16664C4.38765 11.6722 4.59961 11.76 4.75589 11.9163C4.91217 12.0725 4.99997 12.2845 4.99997 12.5055C4.99997 12.7265 4.91217 12.9385 4.75589 13.0948C4.59961 13.251 4.38765 13.3388 4.16664 13.3388ZM10.8333 19.968C10.6123 19.9778 10.3964 19.8994 10.2331 19.7501C10.0699 19.6008 9.97269 19.3927 9.96285 19.1717C9.95302 18.9507 10.0314 18.7348 10.1807 18.5716C10.33 18.4084 10.5381 18.3111 10.7591 18.3013C12.3361 18.157 13.8394 17.5663 15.0928 16.5985C16.3463 15.6306 17.298 14.3256 17.8365 12.8364C18.375 11.3471 18.478 9.73523 18.1334 8.18954C17.7889 6.64386 17.011 5.22835 15.8909 4.10881C14.7709 2.98928 13.355 2.21207 11.8092 1.86822C10.2633 1.52436 8.65152 1.62811 7.16251 2.16729C5.6735 2.70648 4.36895 3.65878 3.40166 4.91266C2.43438 6.16654 1.84439 7.67009 1.70082 9.24719C1.69097 9.35619 1.65975 9.46218 1.60894 9.55911C1.55813 9.65604 1.48873 9.74201 1.40469 9.81212C1.32065 9.88223 1.22363 9.9351 1.11916 9.96771C1.01469 10.0003 0.904825 10.012 0.795828 10.0022C0.686832 9.99234 0.580842 9.96112 0.483912 9.91031C0.386981 9.8595 0.301008 9.79009 0.2309 9.70606C0.160792 9.62202 0.107923 9.525 0.0753116 9.42053C0.0426998 9.31606 0.030984 9.20619 0.0408331 9.09719C0.273239 6.5333 1.48549 4.15781 3.42525 2.46521C5.36501 0.772609 7.88282 -0.10669 10.4546 0.0103487C13.0263 0.127388 15.4538 1.23175 17.2318 3.09354C19.0098 4.95534 20.0013 7.43112 19.9999 10.0055C20.0126 12.5041 19.0844 14.916 17.3998 16.7613C15.7152 18.6067 13.3977 19.7503 10.9083 19.9646C10.8833 19.9671 10.8574 19.968 10.8333 19.968ZM9.99994 5.00555C9.77892 5.00555 9.56696 5.09335 9.41068 5.24963C9.2544 5.40591 9.16661 5.61787 9.16661 5.83888V10.0055C9.16665 10.2265 9.25448 10.4384 9.41077 10.5947L11.9108 13.0947C12.0679 13.2465 12.2784 13.3305 12.4969 13.3286C12.7154 13.3267 12.9244 13.239 13.0789 13.0845C13.2334 12.93 13.3211 12.721 13.323 12.5025C13.3249 12.284 13.2409 12.0735 13.0891 11.9163L10.8333 9.66052V5.83888C10.8333 5.61787 10.7455 5.40591 10.5892 5.24963C10.4329 5.09335 10.2209 5.00555 9.99994 5.00555Z" fill="#668BD4"/>
</svg>
