<svg width="18" height="25" viewBox="0 0 18 25" fill="none" xmlns="http://www.w3.org/2000/svg">
<path d="M17.1743 15.4958H16.6376V3.54424H17.1743C17.6303 3.54424 18 3.17515 18 2.72C18 2.26485 17.6303 1.89576 17.1743 1.89576H9.82569V0.824242C9.82569 0.369013 9.45603 0 9 0C8.54397 0 8.17431 0.369013 8.17431 0.824242V1.89576H0.825688C0.369743 1.89576 0 2.26485 0 2.72C0 3.17515 0.369743 3.54424 0.825688 3.54424H1.36239V15.4958H0.825688C0.369743 15.4958 0 15.8648 0 16.32C0 16.7752 0.369743 17.1442 0.825688 17.1442H5.27028L2.78381 23.3494C2.61446 23.7721 2.82039 24.2517 3.2438 24.4208C3.34437 24.461 3.44816 24.48 3.55021 24.48C3.87793 24.48 4.18797 24.2839 4.31711 23.9616L7.04196 17.1616C7.04419 17.1559 7.04576 17.15 7.04791 17.1442H8.17431V23.6555C8.17431 24.1107 8.54397 24.4798 9 24.4798C9.45603 24.4798 9.82569 24.1107 9.82569 23.6555V17.1442H10.9521C10.9542 17.15 10.9558 17.1559 10.958 17.1616L13.6829 23.9616C13.812 24.2839 14.1221 24.48 14.4498 24.48C14.5518 24.48 14.6556 24.461 14.7562 24.4208C15.1796 24.2517 15.3855 23.7721 15.2162 23.3494L12.7297 17.1442H17.1743C17.6303 17.1442 18 16.7752 18 16.32C18 15.8648 17.6303 15.4958 17.1743 15.4958ZM3.01376 3.54424H14.9862V15.4958H3.01376V3.54424Z" fill="#668BD4"/>
</svg>
