<svg width="20" height="19" viewBox="0 0 20 19" fill="none" xmlns="http://www.w3.org/2000/svg">
<path d="M16.1538 4.07617H3.84615C2.27427 4.07617 1 5.35044 1 6.92233V14.3069C1 15.8788 2.27427 17.1531 3.84615 17.1531H16.1538C17.7257 17.1531 19 15.8788 19 14.3069V6.92233C19 5.35044 17.7257 4.07617 16.1538 4.07617Z" stroke="#668BD4" stroke-width="2" stroke-linejoin="round"/>
<mask id="path-2-outside-1_1_476" maskUnits="userSpaceOnUse" x="0" y="0" width="18" height="8" fill="black">
<rect fill="white" width="18" height="8"/>
<path d="M15.9754 5.0763V3.92246C15.9753 3.63946 15.9127 3.35997 15.7922 3.10393C15.6717 2.84789 15.4961 2.62161 15.278 2.44124C15.06 2.26086 14.8048 2.13084 14.5307 2.06044C14.2566 1.99005 13.9703 1.98102 13.6923 2.034L3.56308 3.76284C3.1232 3.84667 2.72637 4.08137 2.44102 4.42647C2.15567 4.77157 1.9997 5.20544 2 5.65323V7.53784"/>
</mask>
<path d="M15.9754 3.92246H17.9754L17.9754 3.92181L15.9754 3.92246ZM13.6923 2.034L14.0288 4.00549C14.0415 4.00333 14.0541 4.00104 14.0667 3.99864L13.6923 2.034ZM3.56308 3.76284L3.22659 1.79135C3.21393 1.79351 3.20129 1.7958 3.18868 1.7982L3.56308 3.76284ZM2 5.65323H4L4 5.65187L2 5.65323ZM17.9754 5.0763V3.92246H13.9754V5.0763H17.9754ZM17.9754 3.92181C17.9752 3.3445 17.8476 2.77434 17.6017 2.25202L13.9827 3.95584C13.9779 3.9456 13.9754 3.93442 13.9754 3.9231L17.9754 3.92181ZM17.6017 2.25202C17.3558 1.7297 16.9976 1.26809 16.5528 0.900123L14.0033 3.98235C13.9946 3.97514 13.9875 3.96609 13.9827 3.95584L17.6017 2.25202ZM16.5528 0.900123C16.1079 0.53216 15.5873 0.266912 15.0282 0.123307L14.0332 3.99758C14.0222 3.99477 14.012 3.98956 14.0033 3.98235L16.5528 0.900123ZM15.0282 0.123307C14.469 -0.0202975 13.885 -0.0387204 13.3179 0.069353L14.0667 3.99864C14.0556 4.00076 14.0441 4.0004 14.0332 3.99758L15.0282 0.123307ZM13.3558 0.0625064L3.22659 1.79135L3.89957 5.73433L14.0288 4.00549L13.3558 0.0625064ZM3.18868 1.7982C2.29133 1.96921 1.48179 2.448 0.899677 3.15201L3.98236 5.70094C3.97095 5.71475 3.95507 5.72413 3.93748 5.72749L3.18868 1.7982ZM0.899677 3.15201C0.317566 3.85601 -0.000618458 4.74109 9.53674e-07 5.65458L4 5.65187C4.00001 5.66978 3.99377 5.68714 3.98236 5.70094L0.899677 3.15201ZM4.76837e-07 5.65323V7.53784H4V5.65323H4.76837e-07Z" fill="#668BD4" mask="url(#path-2-outside-1_1_476)"/>
<path d="M14.3077 11.8453C14.0643 11.8453 13.8263 11.7731 13.6239 11.6379C13.4215 11.5027 13.2638 11.3104 13.1706 11.0856C13.0775 10.8607 13.0531 10.6132 13.1006 10.3744C13.1481 10.1357 13.2653 9.9164 13.4374 9.74427C13.6095 9.57215 13.8288 9.45493 14.0676 9.40744C14.3063 9.35995 14.5538 9.38432 14.7787 9.47748C15.0036 9.57063 15.1958 9.72838 15.3311 9.93078C15.4663 10.1332 15.5385 10.3711 15.5385 10.6146C15.5385 10.941 15.4088 11.254 15.178 11.4848C14.9472 11.7157 14.6341 11.8453 14.3077 11.8453Z" fill="#668BD4"/>
</svg>
