<svg width="17" height="33" viewBox="0 0 17 33" xmlns="http://www.w3.org/2000/svg">
<path d="M2.0793 11.5036L12.9573 0.685373C13.4014 0.246395 14.0021 -2.62089e-07 14.6282 -2.07353e-07C15.2543 -1.52617e-07 15.8549 0.246395 16.299 0.685373C16.5211 0.904479 16.6974 1.16516 16.8177 1.45237C16.9381 1.73958 17 2.04764 17 2.35878C17 2.66992 16.9381 2.97799 16.8177 3.2652C16.6974 3.55241 16.5211 3.81309 16.299 4.03219L5.39722 14.8269C5.17509 15.046 4.99878 15.3066 4.87846 15.5939C4.75814 15.8811 4.6962 16.1891 4.6962 16.5003C4.6962 16.8114 4.75814 17.1195 4.87846 17.4067C4.99878 17.6939 5.17509 17.9546 5.39722 18.1737L16.299 28.9683C16.7452 29.409 16.9972 30.008 16.9994 30.6334C17.0016 31.2589 16.7539 31.8596 16.3108 32.3034C15.8677 32.7472 15.2654 32.9978 14.6365 33C14.0076 33.0022 13.4036 32.7559 12.9573 32.3152L2.0793 21.4969C0.747858 20.1712 -1.60631e-06 18.374 -1.4425e-06 16.5003C-1.27869e-06 14.6265 0.747859 12.8294 2.0793 11.5036Z"/>
</svg>
