<svg viewBox="0 0 20 19" fill="none" xmlns="http://www.w3.org/2000/svg"><path fill-rule="evenodd" clip-rule="evenodd" d="M9.36.03a1.3 1.3 0 0 0-.6.44c-.22.3-.22.13-.22 4.17v3.71h-3.52c-2.36 0-3.6.01-3.74.04-.57.1-.93.53-.93 1.11 0 .58.36 1.01.93 1.12.14.02 1.38.04 3.74.04h3.52l.01 3.74.01 3.75.09.18c.2.43.57.67 1.05.67.47 0 .82-.22 1.03-.68l.1-.21.01-3.73.01-3.72h3.67c2.46 0 3.75-.02 3.9-.04a1.13 1.13 0 0 0 0-2.23 75.4 75.4 0 0 0-3.92-.02l-3.69.03v-3.74c0-3.66 0-3.75-.07-3.94-.1-.24-.33-.5-.57-.61a1.4 1.4 0 0 0-.81-.08Z" fill="#fff"/></svg>