<svg viewBox="0 0 15 15" xmlns="http://www.w3.org/2000/svg"><path d="M14.67 7.17a.33.33 0 0 0 .33-.36 7.52 7.52 0 0 0-6.8-6.8.27.27 0 0 0-.26.08.33.33 0 0 0-.1.24c.05 4.8.68 6.77 6.83 6.84Zm0 .66c-6.15.07-6.78 2.03-6.84 6.84a.33.33 0 0 0 .36.33 7.52 7.52 0 0 0 6.8-6.81.33.33 0 0 0-.32-.36Zm-7.88-7.83a7.52 7.52 0 0 0-6.79 6.81.33.33 0 0 0 .33.36c6.13-.07 6.76-2.04 6.82-6.84a.33.33 0 0 0-.36-.33Zm-6.46 7.83c-.1-.01-.18.04-.24.1a.33.33 0 0 0-.09.26 7.52 7.52 0 0 0 6.82 6.8.33.33 0 0 0 .33-.32c-.06-4.8-.7-6.77-6.82-6.84Z"/></svg>