<svg viewBox="0 0 16 16" xmlns="http://www.w3.org/2000/svg"><path d="M14.53 3.31a1.48 1.48 0 0 0 1.04-.48 1.83 1.83 0 0 0 0-2.34c-.14-.16-.3-.28-.48-.36a1.33 1.33 0 0 0-.56-.13c-.4 0-.77.17-1.05.48a1.84 1.84 0 0 0 0 2.35c.28.3.66.48 1.05.48Z"/><path fill-rule="evenodd" clip-rule="evenodd" d="M2.86 15.98h-2.86v-12.85h10.89c.73 0 1.44.33 1.96.91.52.59.82 1.38.82 2.21v2.58c0 .73-.25 1.44-.7 1.99-.43.54-1.04.88-1.7.94l2.77 4.24h-3.2l-2.54-4.23h-5.44v4.2Zm-.02-10.03v3h7.2a.74.74 0 0 0 .52-.24.92.92 0 0 0 .22-.59v-1.34a.88.88 0 0 0-.21-.58.7.7 0 0 0-.52-.25h-7.2Z"/></svg>