<svg viewBox="0 0 14 14" xmlns="http://www.w3.org/2000/svg"><path d="M2.33 0a2.33 2.33 0 0 0-2.33 2.33v9.34a2.33 2.33 0 0 0 2.33 2.33h9.34a2.33 2.33 0 0 0 2.33-2.33v-9.34a2.33 2.33 0 0 0-2.33-2.33h-9.34Zm4.67 2.33a2.34 2.34 0 1 1 0 4.68 2.34 2.34 0 0 1 0-4.68Zm0 1.17a1.17 1.17 0 1 0 0 2.33 1.17 1.17 0 0 0 0-2.33Zm-2.05 3.8c.12 0 .23.02.33.09.02.01.76.49 1.72.49s1.71-.49 1.72-.5a.58.58 0 0 1 .65.98c-.04.02-.68.44-1.61.61l1.7 1.7a.58.58 0 0 1-.83.83l-1.63-1.63-1.63 1.63a.58.58 0 1 1-.82-.83l1.7-1.7a4.62 4.62 0 0 1-1.62-.61.58.58 0 0 1 .32-1.07Z"/></svg>