<svg width="8" height="16" viewBox="0 0 8 16" xmlns="http://www.w3.org/2000/svg">
<path d="M0.978494 10.671L6.09758 15.5829C6.30654 15.7822 6.5892 15.894 6.88384 15.894C7.17848 15.894 7.46115 15.7822 7.67011 15.5829C7.77464 15.4834 7.85761 15.365 7.91423 15.2346C7.97085 15.1042 8 14.9643 8 14.8231C8 14.6818 7.97085 14.5419 7.91423 14.4115C7.85761 14.2811 7.77464 14.1628 7.67011 14.0633L2.53987 9.16211C2.43534 9.06263 2.35237 8.94427 2.29575 8.81386C2.23913 8.68346 2.20997 8.54359 2.20997 8.40232C2.20997 8.26105 2.23913 8.12118 2.29575 7.99077C2.35237 7.86037 2.43534 7.74201 2.53987 7.64253L7.67011 2.74136C7.88011 2.54127 7.99868 2.26933 7.99973 1.98535C8.00078 1.70138 7.88421 1.42864 7.67568 1.22713C7.46715 1.02562 7.18374 0.911851 6.88778 0.910848C6.59183 0.909844 6.30759 1.02169 6.09758 1.22178L0.978494 6.13365C0.351934 6.7356 4.76837e-07 7.55157 4.76837e-07 8.40232C4.76837e-07 9.25307 0.351934 10.069 0.978494 10.671Z"/>
</svg>
