<svg viewBox="0 0 15 15" fill="none" xmlns="http://www.w3.org/2000/svg"><path fill-rule="evenodd" clip-rule="evenodd" d="M6.9.03a7.51 7.51 0 1 0 3.87 14.22 7.5 7.5 0 0 0-3.87-14.22Zm1.57 1.42a6.11 6.11 0 0 1 1.18 11.8 6.13 6.13 0 1 1-1.18-11.8Zm-1.3 1.36a.83.83 0 0 0-.23.22l-.1.13v2.23c-.01 1.61 0 2.26.02 2.35.03.11.23.32 1.13 1.23 1.16 1.16 1.27 1.25 1.55 1.25.5 0 .82-.5.61-.96a8.3 8.3 0 0 0-1.02-1.1l-.96-.96v-2.02l-.02-2.01-.08-.13a.62.62 0 0 0-.54-.3.63.63 0 0 0-.35.07Z" fill="#668BD4"/></svg>