<svg viewBox="0 0 78 8" fill="none" xmlns="http://www.w3.org/2000/svg"><path fill-rule="evenodd" clip-rule="evenodd" d="M77.41 7.59c.36-.3.59-.69.59-1.02 0-.74-.8-1.5-1.56-1.51-.95-.01-2.31-.6-5.39-2.31-6.43-3.6-7.93-3.6-14.35-.1-4 2.18-4.84 2.49-6 2.24-.48-.1-2.3-.97-4.06-1.93-3.73-2.03-5.17-2.66-6.67-2.89-2.06-.31-4.09.35-8.32 2.72a37.23 37.23 0 0 1-3.7 1.84c-1.64.6-2.09.49-6.14-1.7a53.35 53.35 0 0 0-4.73-2.32c-3.1-1.16-5.05-.73-10.63 2.38a19.68 19.68 0 0 1-4.06 1.88c-1.61.33-2.11.57-2.28 1.1-.24.74-.1 1.18.56 1.65.52.38.76.43 1.72.33 1.57-.15 3.09-.76 6.58-2.66 5.47-2.98 5.05-2.99 10.62.08 3.94 2.17 5 2.55 7.01 2.54 2.03 0 3.14-.41 6.96-2.52 5.57-3.07 5.25-3.07 10.48-.18 3.88 2.14 5.4 2.7 7.3 2.71 1.9 0 3.35-.54 7.77-2.92 1.8-.97 3.56-1.82 3.9-1.89 1.2-.24 2.2.12 5.46 1.9 3.73 2.04 5.57 2.79 7.2 2.94 1.03.1 1.21.06 1.74-.36Z" fill="#BEC7E7"/></svg>