<svg width="15" height="8" viewBox="0 0 15 8" fill="none" xmlns="http://www.w3.org/2000/svg">
<path d="M5.22891 0.978493L0.311533 6.09758C0.111998 6.30654 -6.16679e-08 6.5892 -4.87889e-08 6.88384C-3.59098e-08 7.17848 0.111998 7.46115 0.311533 7.67011C0.411127 7.77464 0.529616 7.85761 0.660167 7.91423C0.790718 7.97085 0.930746 8 1.07217 8C1.2136 8 1.35363 7.97085 1.48418 7.91423C1.61473 7.85761 1.73322 7.77464 1.83281 7.67011L6.73948 2.53987C6.83908 2.43534 6.95757 2.35237 7.08812 2.29575C7.21867 2.23913 7.35869 2.20997 7.50012 2.20997C7.64155 2.20997 7.78158 2.23913 7.91213 2.29575C8.04268 2.35237 8.16117 2.43534 8.26076 2.53987L13.1674 7.6701C13.3677 7.88011 13.64 7.99868 13.9243 7.99973C14.2086 8.00077 14.4816 7.88421 14.6834 7.67568C14.8851 7.46715 14.999 7.18374 15 6.88778C15.001 6.59183 14.889 6.30758 14.6887 6.09758L9.77133 0.978493C9.16871 0.351934 8.35183 1.11767e-07 7.50012 1.48996e-07C6.64842 1.86226e-07 5.83154 0.351934 5.22891 0.978493Z" fill="#CDD2E4"/>
</svg>
